<svg width="480" height="367" viewBox="0 0 480 367" fill="none" xmlns="http://www.w3.org/2000/svg">
<mask id="mask0_262_1872" style="mask-type:alpha" maskUnits="userSpaceOnUse" x="0" y="0" width="480" height="367">
<rect width="480" height="367" fill="#D9D9D9"/>
</mask>
<g mask="url(#mask0_262_1872)">
<g clip-path="url(#clip0_262_1872)">
<mask id="mask1_262_1872" style="mask-type:luminance" maskUnits="userSpaceOnUse" x="29" y="62" width="230" height="228">
<path d="M258.13 175.809C258.13 112.971 207.015 62.0304 143.963 62.0304C80.9102 62.0304 29.7959 112.971 29.7959 175.809C29.7959 238.648 80.9102 289.588 143.963 289.588C207.015 289.588 258.13 238.648 258.13 175.809Z" fill="white"/>
</mask>
<g mask="url(#mask1_262_1872)">
<path d="M224.667 256.256C269.253 211.823 269.253 139.781 224.667 95.3471C180.082 50.9132 107.795 50.9132 63.2094 95.3471C18.6241 139.781 18.6241 211.823 63.2094 256.256C107.795 300.69 180.082 300.69 224.667 256.256Z" fill="#CEE7FF"/>
</g>
<mask id="mask2_262_1872" style="mask-type:luminance" maskUnits="userSpaceOnUse" x="29" y="62" width="230" height="228">
<path d="M224.667 256.256C269.253 211.823 269.253 139.781 224.667 95.3471C180.082 50.9132 107.795 50.9132 63.2094 95.3471C18.6241 139.781 18.6241 211.823 63.2094 256.256C107.795 300.69 180.082 300.69 224.667 256.256Z" fill="white"/>
</mask>
<g mask="url(#mask2_262_1872)">
<path d="M207.395 114.209C207.909 114.063 208.422 113.916 208.863 113.697C209.376 113.404 209.963 113.112 210.403 112.673C210.844 112.234 211.284 111.723 211.504 111.211C211.798 110.626 211.944 110.333 212.605 110.114C213.412 109.894 214.072 109.309 214.953 109.309C215.026 109.309 215.173 109.236 215.246 109.09C215.686 108.432 216.347 108.505 216.934 108.724C217.667 108.139 217.741 107.481 217.301 106.677C217.227 106.531 217.154 106.238 217.08 106.092C216.347 104.995 216.86 103.971 217.301 103.021C217.447 102.728 217.814 102.582 218.108 102.363C218.475 102.07 218.768 101.778 219.135 101.558C219.502 101.339 219.942 101.046 220.235 101.485C220.382 101.705 220.309 102.216 220.235 102.582C220.162 103.021 220.015 103.46 219.942 103.898C219.869 104.191 219.869 104.556 219.722 104.703C219.062 105.288 219.355 106.019 219.575 106.604C219.869 107.262 220.382 107.481 221.189 107.408C220.676 106.677 221.483 105.946 220.969 105.214C220.822 104.995 221.189 104.556 221.63 104.483C221.923 104.41 222.217 104.337 222.51 104.191C223.317 103.752 223.464 103.313 222.95 102.509C222.657 101.997 222.217 101.631 221.923 101.12C221.409 100.242 220.896 99.3646 220.382 98.3408C219.575 98.9258 218.695 99.4377 217.888 100.023C216.64 100.9 215.173 100.973 214.219 100.023C214.072 99.8764 213.852 99.7302 213.852 99.5108C213.632 97.7558 212.678 96.074 212.898 94.2459C212.972 93.5146 213.192 93.0759 213.852 92.7834C214.732 92.3446 215.54 91.9059 216.347 91.394C217.007 90.9553 217.667 90.5165 218.548 90.5165C218.768 90.5165 219.135 90.3703 219.282 90.1509C220.015 89.4928 220.676 88.8347 221.336 88.1034C221.556 87.8841 221.776 87.7378 221.996 87.5184C222.217 87.3722 222.437 87.2259 222.51 87.0066C223.464 85.3978 223.537 85.3978 225.005 84.1547C225.592 83.716 225.959 82.9116 226.399 82.3266C226.619 82.0341 226.766 81.6685 227.059 81.5954C228.38 81.3029 229.114 80.206 229.921 79.1823C230.361 78.6704 230.875 78.6704 231.315 78.9629C231.755 79.1823 232.049 79.1823 232.415 78.9629C232.636 78.8167 232.929 78.8167 233.223 78.8167C233.81 78.8167 234.176 78.5973 234.617 78.1586C234.984 77.8661 235.424 77.5736 235.864 77.5004C237.111 77.3542 238.359 77.2811 239.606 77.3542C241 77.4273 242.394 77.6467 243.788 77.8661C244.669 78.0123 244.742 78.1586 244.889 79.036C247.164 79.621 249.438 80.206 251.713 80.7179C253.254 81.0104 254.721 81.6685 256.115 82.2535C256.555 82.3998 256.922 82.6191 257.289 82.9116C258.243 83.5697 258.17 84.5935 257.216 85.2516C256.409 85.8366 255.601 86.1291 254.648 86.056C253.18 86.056 251.786 86.2022 250.319 85.471C250.612 85.9828 251.052 86.3485 250.832 86.9335C251.639 87.4453 251.786 88.7616 252.96 88.8347C253.254 88.8347 253.547 88.9809 253.914 88.9809C253.694 88.8347 253.4 88.6884 253.254 88.3959C253.107 88.1766 252.887 87.8109 252.96 87.6647C253.033 87.4453 253.4 87.1528 253.62 87.0797C253.987 87.0797 254.428 87.2259 254.794 87.3722C255.528 87.6647 256.262 87.9572 257.142 88.0303C257.069 87.8841 256.996 87.8109 256.922 87.6647C256.555 87.0797 256.629 86.641 257.216 86.4947C258.61 86.2022 259.49 84.7397 261.031 84.886C261.105 84.886 261.178 84.8128 261.325 84.6666C260.958 84.1547 260.518 83.716 260.811 82.9116C260.884 82.6191 260.444 82.1073 260.297 81.7416C261.838 81.0835 263.452 81.3029 264.333 82.3266C264.113 82.546 263.966 82.6923 263.746 82.9116C263.526 83.0579 263.306 83.2041 262.865 83.3504C263.819 83.7891 264.553 84.301 265.507 84.1547C265.654 82.9847 266.387 82.6923 267.341 82.3998C268.442 82.1073 269.616 81.8879 270.57 81.1566C271.23 80.6448 272.037 80.6448 272.771 81.0835C273.285 81.4491 273.798 81.376 274.385 81.2298C275.632 81.0104 276.806 80.7179 278.054 80.6448C278.641 80.5717 279.301 80.791 279.961 80.8641C279.815 80.3523 279.668 79.9135 279.595 79.4748C281.209 78.9629 282.676 78.8167 284.07 79.3285C285.685 79.9135 287.225 80.5716 288.766 81.2298C289.207 81.376 289.647 81.5223 290.16 81.5954C289.72 80.8641 289.06 80.5717 288.399 80.2792C287.812 80.0598 287.446 79.7673 287.225 79.1092C287.005 78.5973 286.638 78.1586 286.125 77.5004C286.125 76.8423 286.785 76.5498 287.299 76.1842C287.299 76.1111 287.372 76.038 287.372 76.038C287.372 74.3561 287.446 74.283 288.986 73.9905C289.427 73.9174 289.94 73.8442 290.454 73.9174C291.848 74.0636 292.362 74.6486 292.435 76.4767C292.728 76.6961 293.169 76.9154 293.536 77.1348C293.682 76.5498 293.536 75.7455 294.269 75.5261C294.416 75.453 294.343 74.9411 294.416 74.4292C294.856 74.5755 295.297 74.5755 295.59 74.7948C296.324 75.5992 296.911 75.7455 297.938 75.2336C298.598 74.868 299.479 75.0873 300.286 75.0873C300.433 75.0873 300.579 75.0873 300.946 75.0142C300.726 74.7217 300.506 74.5023 300.359 74.283C299.846 73.698 299.919 73.113 300.653 72.8936C300.873 72.8205 301.093 72.8205 301.387 72.8205C302.707 72.7474 304.028 72.6011 305.349 72.528C305.495 72.528 305.569 72.4549 305.789 72.3817C305.716 72.0161 305.569 71.7236 305.495 71.2118C307.183 70.6999 308.651 69.5299 310.485 69.5299C311.072 69.5299 311.585 69.3105 312.172 69.2374C314.154 68.9449 316.135 68.6524 318.189 68.433C318.189 67.7018 318.556 67.3362 319.216 67.1899C320.39 66.9706 321.564 67.0437 322.738 67.3362C325.013 67.848 327.214 68.6524 329.562 68.5062C331.029 68.433 332.423 68.7255 333.744 69.5299C333.818 69.603 333.891 69.603 333.964 69.6762C334.184 69.9686 334.625 70.3343 334.625 70.6268C334.625 70.9193 334.184 71.2849 333.891 71.5043C333.157 72.0892 332.35 72.6011 331.616 73.113C331.47 73.1861 331.323 73.2592 331.25 73.5517C332.35 73.7711 333.377 73.6249 334.331 73.113C335.138 72.6742 335.872 72.6742 336.753 72.8205C337.853 73.0399 338.954 73.113 340.054 73.2592C340.788 73.3324 341.595 73.4055 342.329 73.4786C344.017 73.6249 345.704 73.4055 347.318 73.9905C347.612 74.0636 347.979 73.9905 348.346 73.9905C348.346 73.698 348.419 73.4786 348.419 73.1861C349.226 72.8205 350.033 72.8205 350.84 73.2592C351.574 73.6249 352.308 73.7711 353.188 73.6249C354.582 73.3324 355.976 73.5517 357.224 74.4292C357.444 74.5755 357.737 74.7217 357.884 74.9411C358.838 76.6229 360.672 76.6961 361.846 77.7929C361.92 77.7198 361.993 77.6467 362.066 77.5736C361.92 77.1348 361.773 76.7692 361.553 76.1111C362.066 76.2573 362.433 76.2573 362.8 76.4036C363.901 76.7692 365.001 76.9154 366.102 76.4036C366.689 76.1842 367.203 76.1111 367.863 76.3305C368.376 76.4767 368.964 76.3305 369.624 76.3305C369.477 76.038 369.404 75.7455 369.257 75.453C369.697 74.7217 370.358 74.5023 371.165 74.5755C373.219 74.7948 375.2 75.0142 377.255 75.1605C379.676 75.3067 382.024 75.9648 384.445 76.5498C384.519 76.5498 384.519 76.5498 384.592 76.6229C386.72 77.9392 389.141 77.6467 391.416 77.4273C392.81 77.2811 394.131 77.6467 395.451 77.8661C395.745 77.9392 396.112 77.9392 396.405 78.0123C396.845 78.1586 397.286 78.2317 397.579 78.451C398.533 79.2554 399.634 79.4748 400.734 79.5479C401.541 79.621 402.422 79.5479 403.229 79.5479C405.503 79.5479 407.778 79.6942 410.053 80.206C410.273 80.2792 410.419 80.206 410.64 80.206C410.64 79.8404 410.64 79.5479 410.64 79.036C411.74 79.036 412.841 78.8898 413.868 79.036C417.096 79.4748 420.252 79.9867 423.48 80.4985C424.727 80.7179 425.901 80.8641 427.149 81.1566C429.276 81.5954 431.331 82.1804 433.312 83.131C435 83.9354 436.761 84.1547 438.522 84.4472C440.209 84.7397 442.41 85.6903 443.364 86.7872C443.217 86.9335 442.997 87.0797 442.851 87.2259C443.071 87.8841 443.291 88.4691 443.584 89.1272C442.557 89.4928 441.677 89.4197 440.796 89.1272C439.182 88.5422 437.568 87.9572 435.88 87.3722C434.853 87.0066 433.899 87.2991 433.239 88.1766C433.019 88.4691 432.798 88.6884 432.505 88.9809C433.752 89.7122 434.926 90.6628 436.394 90.8822C437.127 91.0284 437.641 91.3209 438.081 92.0521C437.348 93.149 436.174 92.9296 435.22 92.7834C434.559 92.6371 434.119 92.7834 433.606 93.2221C432.945 93.8802 432.285 94.4652 431.991 95.489C431.624 96.8052 430.744 97.0977 429.497 96.659C429.13 96.5858 428.836 96.4396 428.469 96.3665C427.662 96.2202 427.442 96.2933 427.002 97.1708C426.708 97.6827 426.415 97.6827 425.975 97.3171C425.681 97.0977 425.461 96.8052 425.094 96.4396C424.727 97.4633 423.847 96.9515 423.26 97.3171C423.48 98.0483 423.7 98.8527 423.847 99.5839C423.994 100.169 424.507 100.388 424.947 100.388C426.635 100.388 427.075 102.07 428.103 103.094C427.882 104.41 428.91 104.849 429.643 105.58C430.377 106.311 430.157 107.116 429.203 107.554C429.056 107.628 428.91 107.701 428.689 107.774C429.13 108.359 429.57 108.944 430.084 109.602C429.57 109.821 429.203 110.041 428.689 110.26C428.836 110.626 429.056 110.991 429.13 111.43C429.276 112.015 429.35 112.673 429.423 113.331C429.423 113.624 429.276 114.063 429.056 114.063C428.836 114.136 428.396 113.989 428.176 113.843C427.295 113.112 426.488 112.381 425.681 111.576C425.021 110.918 424.434 110.26 423.773 109.602C422.966 108.798 422.233 107.847 421.352 107.116C420.178 106.238 419.371 105.068 418.637 103.825C418.197 103.167 417.977 102.29 417.757 101.485C417.683 101.266 417.977 100.9 418.197 100.681C418.637 100.242 419.151 99.8764 419.665 99.4377C419.004 98.7064 419.224 97.9752 419.298 97.1708C419.371 96.2933 419.738 95.7815 420.472 95.2696C419.958 94.6846 419.518 94.1727 419.004 93.4415C418.637 94.0265 418.197 94.4652 417.904 95.0502C417.61 95.489 417.243 95.7815 416.803 95.489C416.069 95.0502 415.042 95.0502 414.822 93.9534C413.575 94.0265 412.474 93.4415 411.373 94.0265C411.227 94.6846 411.006 95.3427 411.006 96.0008C411.006 96.3665 411.3 96.7321 411.52 97.0977C411.593 97.244 411.96 97.1708 412.034 97.3171C412.254 97.5365 412.401 97.8289 412.547 98.0483C412.327 98.1946 412.107 98.4139 411.887 98.4139C410.933 98.5602 409.906 98.7796 408.952 98.8527C408.659 98.8527 408.218 98.8527 408.072 98.6333C407.264 97.8289 406.237 97.9021 405.283 97.6096C405.137 97.5365 404.916 97.4633 404.843 97.5365C403.669 98.4139 402.275 97.4633 401.028 98.2677C400.808 98.4139 400.367 98.1214 400 98.1214C398.973 98.1214 398.019 98.1214 396.992 98.1946C396.552 98.1946 396.258 98.4871 396.112 98.9989C395.818 99.9496 395.378 100.754 395.011 101.631C394.938 101.851 394.791 101.997 394.791 102.216C394.864 103.606 394.131 104.776 393.544 106.092C393.984 106.092 394.351 106.092 394.718 106.165C395.305 106.311 395.965 106.238 396.258 106.969C396.552 107.701 396.919 108.066 397.726 107.993C398.019 107.92 398.313 108.139 398.68 108.213C398.68 108.066 398.753 107.92 398.753 107.774C398.753 107.628 398.753 107.554 398.753 107.335C400.954 107.262 402.862 108.066 404.623 109.748C404.476 108.871 404.403 108.139 404.256 107.116C404.77 107.554 405.137 107.774 405.357 108.066C406.09 108.871 406.604 109.968 407.705 110.406L407.778 110.479C408.732 111.723 409.686 112.893 410.566 114.209C411.153 115.013 411.667 115.817 412.547 116.11C413.061 116.329 413.501 116.695 413.721 117.426C413.281 117.499 412.988 117.572 412.547 117.646C412.767 119.986 414.749 120.936 416.069 122.618C415.776 122.764 415.482 122.837 415.336 123.057C415.189 123.276 415.189 123.788 414.749 123.715C414.382 123.569 413.941 123.422 413.795 123.057C413.208 122.179 412.694 121.229 412.18 120.351C411.52 119.181 410.86 118.011 410.126 116.914C409.539 115.964 408.952 115.013 408.292 114.209C407.705 113.404 406.971 112.819 406.237 112.015C405.87 112.819 406.237 113.258 406.531 113.697C407.044 114.574 407.631 115.452 408.218 116.183C409.099 117.207 409.025 118.377 408.805 119.62C408.659 120.571 408.585 121.521 408.438 122.399C408.365 122.911 408.292 123.422 408.218 123.934C407.851 125.324 407.485 126.713 407.118 128.175C406.824 129.272 406.384 130.223 405.21 130.369C404.696 130.442 404.183 130.223 403.743 130.077C403.376 129.93 403.009 129.711 402.715 129.492C401.761 130.369 401.321 131.393 401.615 132.636C401.908 133.66 401.541 134.318 400.954 134.976C399.56 136.438 399.634 136.731 401.248 137.974C403.302 139.51 404.843 141.484 405.724 144.043C406.164 145.287 406.017 145.506 404.843 145.945C404.256 146.164 403.743 146.383 403.156 146.603C402.789 146.749 402.422 146.822 401.908 146.968C401.248 145.287 400.661 143.751 400 141.996C400.294 140.68 399.78 140.022 398.093 140.022C397.066 140.022 396.405 139.437 396.332 138.413C396.258 137.901 396.258 137.17 396.038 137.023C395.451 136.585 394.718 136.365 394.057 136.292C393.323 136.219 392.59 136.585 392.003 137.243C391.709 137.682 391.342 138.12 390.609 138.047C390.389 137.243 389.655 136.585 390.168 135.561C390.242 135.415 389.948 134.83 389.655 134.684C389.361 134.464 388.921 134.464 388.628 134.464C388.187 134.976 387.82 135.415 387.527 135.854C387.454 136 387.307 136.146 387.307 136.292C387.307 137.608 386.5 137.828 385.546 137.974C385.473 137.974 385.399 138.047 385.326 138.12C385.473 138.705 385.766 138.998 386.353 139.071C386.72 139.144 387.087 139.217 387.38 139.217C387.894 139.29 388.187 139.583 388.261 140.095C388.334 140.826 388.774 141.118 389.581 141.338C389.655 141.265 389.728 141.045 389.802 140.899C390.315 140.168 390.535 140.095 391.342 140.387C392.003 140.607 392.663 140.753 393.323 140.899C393.764 140.972 394.204 141.045 394.277 141.557C394.351 142.069 393.91 142.362 393.544 142.362C392.663 142.435 392.15 142.873 391.783 143.751C391.709 144.043 391.416 144.19 391.196 144.409C390.682 144.848 390.535 145.36 390.682 146.018C392.737 146.31 393.544 148.211 394.497 149.82C394.864 150.478 395.231 150.99 395.745 151.502C396.405 152.16 396.772 153.111 397.286 153.842C397.066 154.208 396.992 154.427 396.845 154.646C396.699 154.866 396.552 155.012 396.405 155.231C397.873 155.67 397.873 155.743 397.873 157.352C397.946 159.253 397.066 160.862 396.625 162.544C396.552 162.909 396.258 163.202 396.258 163.494C396.185 165.542 394.938 166.858 393.837 168.247C392.883 169.417 391.783 170.368 390.389 170.807C390.022 170.953 389.728 171.099 389.435 171.319C388.554 172.196 388.554 172.196 387.454 171.538C387.013 172.342 386.353 172.781 385.399 172.781C384.739 172.781 384.078 173.074 383.418 173.293C382.978 173.439 382.831 173.732 382.978 174.171C383.125 174.756 383.345 175.341 382.538 175.56C381.877 175.706 381.877 174.975 381.657 174.536C380.997 172.854 379.309 172.562 378.135 173.805C377.328 174.609 376.668 175.487 376.227 176.511C375.787 177.607 376.007 178.485 376.668 179.289C377.695 180.605 378.869 181.775 379.896 183.092C381.07 184.554 382.391 186.017 382.538 188.137C382.538 188.503 382.684 188.795 382.831 189.088C383.418 190.185 383.271 191.355 383.125 192.452C383.051 193.037 382.611 193.622 382.244 194.06C381.51 194.865 380.556 195.45 379.456 195.815C379.089 197.058 377.548 198.887 376.301 199.398C376.154 198.521 376.007 197.643 375.861 196.839C375.714 195.888 375.567 195.742 374.687 195.962C374.613 195.888 374.54 195.888 374.466 195.815C373.293 194.938 372.999 193.329 371.972 192.305C370.798 191.062 370.798 191.062 369.11 190.77C369.037 190.477 368.963 190.112 368.743 189.746C368.67 189.6 368.45 189.38 368.303 189.453C368.083 189.527 368.01 189.746 367.863 189.892C367.863 189.892 367.863 189.965 367.863 190.038C368.083 191.793 367.496 193.329 367.056 194.938C366.909 195.45 366.909 196.035 366.982 196.62C366.982 196.912 367.276 197.278 367.496 197.278C368.083 197.351 368.156 197.79 368.303 198.228C368.597 199.252 368.963 200.276 369.33 201.226C369.404 201.373 369.477 201.665 369.55 201.665C370.578 201.958 370.945 203.055 371.678 203.566C372.779 204.225 373.366 205.175 373.953 206.199C374.173 206.638 374.32 207.15 374.32 207.661C374.32 209.051 374.54 210.44 375.2 211.683C375.347 212.049 375.567 212.414 375.567 212.78C375.567 213.073 375.494 213.438 375.274 213.658C374.98 213.95 374.613 214.023 374.173 213.731C373.659 213.292 373.072 212.926 372.485 212.561C371.605 211.903 370.578 211.391 370.504 210.001C369.55 208.831 369.477 207.369 369.11 205.906C368.67 204.078 367.569 202.616 366.542 201.153C366.322 200.861 365.882 200.715 365.368 200.349C365.221 199.618 365.001 198.74 365.221 197.79C365.442 197.058 365.515 196.254 365.221 195.523C365.148 195.303 365.148 195.084 365.148 194.865C365.808 192.378 365.001 190.112 364.047 187.918C363.681 187.04 363.46 186.163 363.094 185.285C362.727 184.335 362.213 183.384 361.7 182.141C361.626 182.653 361.553 182.872 361.553 183.092C361.553 183.604 361.259 183.75 360.892 183.896C360.305 184.189 359.718 184.481 359.058 184.774C358.618 184.627 358.031 184.408 357.297 184.189C357.297 183.896 357.224 183.53 357.297 183.165C357.591 180.825 356.49 178.924 355.463 177.022C355.169 176.437 354.436 176.145 353.995 175.633C353.115 174.536 352.454 173.293 351.794 171.977C351.647 171.684 351.501 171.465 351.28 171.172C350.033 172.196 348.566 172.342 347.098 172.562C346.218 172.708 345.411 173.22 344.53 173.659C344.97 175.414 344.017 176.291 342.769 176.949C342.182 177.242 341.742 177.754 341.375 178.266C340.421 179.582 339.761 181.19 338.22 181.922C338.147 181.922 338.073 181.995 338.073 182.068C337.927 183.604 336.312 183.53 335.652 184.554C335.505 184.774 335.138 184.92 334.771 185.139C334.918 186.163 335.065 187.26 335.285 188.284C335.505 189.38 335.358 190.404 334.992 191.428C334.625 192.452 334.405 193.475 334.845 194.572C335.065 195.157 334.992 195.596 334.405 195.888C334.258 195.962 334.038 196.108 334.038 196.181C333.891 197.57 332.644 198.155 331.91 199.179C331.103 200.276 330.516 200.276 329.709 199.179C329.489 198.887 329.342 198.594 329.195 198.302C328.315 196.254 327.507 194.207 326.627 192.159C326.334 191.355 326.113 190.55 325.82 189.746C325.453 188.795 324.939 187.845 324.499 186.894C324.279 186.455 324.059 186.09 323.912 185.578C323.105 183.092 321.931 180.752 321.784 178.046C321.711 177.096 321.344 176.145 321.417 175.121C321.417 174.609 321.051 174.024 320.831 173.293C320.244 174.536 319.216 174.536 318.336 174.756C318.116 174.829 317.675 174.463 317.529 174.171C317.088 173.512 316.575 172.927 315.841 172.562C315.401 172.269 314.961 171.904 315.181 171.172C315.401 171.099 315.694 171.026 316.135 170.88C313.787 169.637 311.879 167.955 310.411 165.396C309.384 165.469 308.21 165.469 307.11 165.688C304.835 166.2 302.634 166.127 300.433 165.688C299.112 165.396 297.865 165.103 296.544 164.811C295.884 164.664 295.443 164.372 295.297 163.641C295.223 163.421 295.15 163.202 295.076 163.056C294.636 162.105 294.489 162.105 293.536 162.544C292.508 162.983 291.554 163.348 290.307 162.763C289.133 162.178 287.959 161.739 286.932 160.862C286.712 160.643 286.345 160.643 286.051 160.423C285.391 160.058 285.171 159.326 285.024 158.595C284.804 157.645 284.217 156.913 283.557 156.255C282.896 155.67 282.016 155.597 281.356 156.036C280.622 156.548 280.402 157.133 280.769 158.01C281.282 159.253 281.869 160.569 283.043 161.374C283.997 162.032 284.731 162.836 284.364 164.299C284.364 164.445 284.437 164.591 284.584 165.103C284.877 164.591 285.024 164.299 285.244 164.006C285.465 163.86 285.611 163.714 285.831 163.568C286.785 164.445 287.005 165.469 286.492 166.931C286.712 167.078 286.859 167.443 287.079 167.443C288.253 167.589 289.5 167.809 290.674 167.297C291.701 166.858 292.068 165.761 292.582 164.884C292.875 164.372 293.022 163.714 293.682 163.348C293.976 164.226 294.269 165.103 294.636 165.908C295.076 166.712 295.59 167.443 296.104 168.174C296.25 168.247 296.25 168.247 296.324 168.247C297.865 167.882 298.672 168.906 299.405 170.149C299.552 170.368 299.772 170.587 299.919 170.88C300.066 171.246 300.286 171.757 300.139 172.05C299.772 173.074 299.259 174.097 298.818 175.048C298.745 175.194 298.672 175.341 298.598 175.341C297.644 175.56 297.791 176.364 297.791 177.022C297.791 178.046 297.791 178.192 296.911 178.558C296.397 178.777 296.03 179.07 295.81 179.655C295.737 179.947 295.37 180.167 295.15 180.313C294.93 180.459 294.563 180.386 294.343 180.532C294.123 180.605 293.976 180.825 293.829 181.044C293.682 181.264 293.609 181.556 293.536 181.702C291.921 182.36 290.454 182.945 288.986 183.53C288.766 185.578 288.399 186.017 286.638 186.455C286.198 186.602 285.685 186.675 285.244 186.748C284.657 186.821 284.144 187.04 283.85 187.625C283.557 188.137 283.043 188.284 282.456 188.284C281.943 188.284 281.576 188.43 281.135 188.795C280.769 189.088 280.328 189.38 279.888 189.527C279.081 189.819 278.201 189.819 277.54 190.55C277.247 190.843 276.586 190.843 276.073 190.843C275.486 190.77 274.899 190.477 274.385 190.331C274.385 189.6 274.385 188.795 274.238 188.064C274.092 187.187 273.725 186.382 273.431 185.505C273.358 185.212 273.284 184.847 273.284 184.481C273.431 183.019 272.918 181.922 271.964 180.898C271.597 180.532 271.157 180.02 271.01 179.509C270.643 178.046 269.836 176.876 268.662 176.072C267.855 175.487 267.341 174.756 267.048 173.732C266.901 173.147 266.828 172.562 266.681 171.977C266.387 171.099 266.167 170.295 265.8 169.491C265.36 168.54 264.48 167.955 263.893 167.224C263.306 166.493 263.012 165.396 262.572 164.518C261.838 163.202 261.105 161.959 260.297 160.716C259.931 160.204 259.49 159.765 259.05 159.253C258.977 159.546 258.83 159.911 258.757 160.277C258.243 160.058 257.803 159.838 257.362 159.546C257.656 160.423 257.729 161.301 258.17 161.959C259.417 164.153 260.297 166.493 261.178 168.832C261.398 169.344 261.691 169.71 262.132 170.076C262.719 170.587 263.159 171.319 263.526 171.977C264.333 173.586 264.626 175.341 264.7 177.096C264.773 178.485 265.507 179.143 266.387 179.801C266.681 180.02 266.974 180.313 267.121 180.605C267.415 181.483 267.635 182.434 267.928 183.311C268.002 183.677 268.148 184.042 268.222 184.408C268.662 185.651 269.689 186.017 270.716 186.382C271.23 186.529 271.524 186.894 271.817 187.26C272.624 188.357 273.431 189.527 274.532 190.331C274.605 190.55 274.605 190.77 274.679 190.916C274.972 191.355 275.192 191.793 275.045 192.378C274.899 193.037 275.119 193.548 275.632 193.914C275.853 194.06 276.073 194.28 276.293 194.499C276.88 195.084 277.54 195.157 278.127 194.718C278.641 194.353 279.008 194.28 279.595 194.499C280.182 194.718 280.695 194.645 281.209 193.987C281.429 193.695 281.943 193.475 282.236 193.548C283.117 193.841 283.924 193.402 284.657 193.256C285.464 193.037 286.198 192.452 287.152 192.013C287.299 192.086 287.592 192.232 287.959 192.452C287.812 193.914 287.666 195.377 287.666 196.839C287.666 197.57 287.225 198.082 286.932 198.74C285.905 201.153 284.951 203.64 283.85 206.053C282.75 208.466 281.356 210.513 279.301 212.122C279.081 212.268 278.934 212.488 278.714 212.561C277.1 213.146 276.146 214.535 275.119 215.924C274.238 217.094 273.211 218.191 272.771 219.654C272.698 219.873 272.404 220.019 272.184 220.239C271.23 220.97 270.496 221.774 270.129 222.944C269.763 224.114 269.102 225.284 268.515 226.381C268.222 226.966 268.002 227.551 268.002 228.209C268.002 228.794 268.222 229.16 268.662 229.526C269.102 229.818 269.249 230.257 268.882 230.769C268.589 231.207 268.515 231.646 268.662 232.231C268.809 232.597 268.589 233.035 268.662 233.474C268.662 234.425 268.662 235.449 269.396 236.18C270.129 236.911 270.57 237.789 270.276 239.032C270.129 239.69 270.203 240.494 270.276 241.225C270.35 242.469 270.35 243.712 270.57 244.955C270.79 246.563 270.203 247.88 269.322 249.123C268.295 250.585 266.828 251.536 265.287 252.267C264.993 252.413 264.553 252.487 264.48 252.706C263.526 254.315 261.912 255.192 260.958 256.728C260.811 257.02 260.664 257.459 260.738 257.751C260.884 258.629 261.104 259.433 261.325 260.238C261.985 262.285 261.618 264.186 260.811 266.014C260.444 266.746 259.784 267.184 258.977 267.404C258.61 267.477 258.17 267.55 257.803 267.696C257.142 267.916 256.629 268.501 256.922 269.086C257.362 270.329 256.775 271.353 256.555 272.449C256.262 273.546 255.822 274.424 254.941 275.228C254.207 275.886 253.767 276.91 253.18 277.787C252.593 278.592 252.08 279.469 251.419 280.201C250.906 280.859 250.319 281.444 249.805 282.102C248.851 283.199 247.751 284.149 246.283 284.442C245.769 284.588 245.256 284.807 244.742 285.027C243.348 285.612 241.807 285.466 240.34 285.466C239.826 285.466 239.386 285.758 238.872 285.831C237.845 285.904 236.818 286.343 235.791 286.416C235.057 286.489 234.25 285.831 233.443 285.539C233.369 285.539 233.296 285.392 233.296 285.319C233.443 284.442 232.929 283.784 232.562 283.126C232.489 282.979 232.636 282.541 232.782 282.321C233.223 281.59 233.369 281.078 232.929 280.347C232.049 279.104 231.682 277.641 231.462 276.179C231.315 275.374 230.948 274.57 230.214 274.058C228.894 273.108 228.453 271.499 228.086 269.963C227.866 269.159 227.866 268.281 227.793 267.404C227.793 267.184 227.793 266.965 227.72 266.746C227.133 265.356 227.353 263.821 227.499 262.431C227.573 261.92 227.499 261.554 227.206 261.115C225.812 259.433 225.005 257.459 224.271 255.338C224.051 254.68 223.611 254.095 223.317 253.437C223.17 253.072 222.877 252.633 222.877 252.267C222.95 250.878 223.024 249.415 223.317 248.026C223.537 246.783 223.978 245.613 224.198 244.443C224.344 243.492 224.711 242.615 225.372 241.957C226.692 240.567 226.766 239.032 226.105 237.35C225.885 236.765 225.665 236.18 225.445 235.522C225.372 235.229 225.298 234.79 225.372 234.498C225.959 232.962 225.298 231.646 224.711 230.33C224.198 229.233 223.757 228.209 223.611 226.893C223.464 225.942 222.73 225.065 222.217 224.261C221.336 223.017 220.382 221.847 219.502 220.604C219.062 220.019 218.768 219.288 218.548 218.557C218.475 218.264 218.475 217.826 218.621 217.606C219.282 216.509 219.502 215.339 219.282 214.023C219.208 213.438 219.428 212.853 219.575 212.268C219.795 211.464 220.015 210.66 219.795 209.709C219.575 209.051 219.575 208.393 218.768 208.173C218.475 208.1 218.254 207.588 218.034 207.223C216.934 207.369 215.906 207.442 214.806 207.588C213.485 207.735 213.118 207.442 212.751 206.053C212.238 204.298 210.99 203.347 209.303 203.493C207.982 203.64 206.661 203.859 205.414 204.444C203.947 205.102 202.479 205.98 200.938 206.491C200.718 206.565 200.278 206.784 200.131 206.638C199.544 206.126 198.81 206.418 198.223 206.126C196.536 205.468 195.068 206.053 193.601 206.565C193.014 206.784 192.427 207.076 191.84 207.296C191.253 207.515 190.739 207.515 190.226 207.076C189.199 206.199 188.245 205.321 187.217 204.517C186.997 204.298 186.777 204.078 186.557 204.005C185.897 203.713 185.383 203.274 185.163 202.543C184.943 201.885 184.356 201.592 183.769 201.373C182.595 201.007 182.228 199.983 182.081 198.96C181.935 198.082 181.641 197.278 181.127 196.62C180.247 195.377 179.22 194.28 178.192 193.256C177.752 192.744 177.019 192.525 176.652 191.867C176.211 190.989 175.771 190.185 176.358 189.088C176.725 188.503 176.358 187.918 176.065 187.406C175.845 187.114 175.624 186.821 175.404 186.602C175.845 185.651 176.138 184.7 176.652 183.823C177.385 182.36 177.385 180.752 177.679 179.216C177.165 178.046 177.459 176.73 177.312 175.487C177.239 175.048 177.312 174.39 176.578 174.39C176.505 174.39 176.358 174.024 176.358 173.878C176.505 172.854 176.432 171.684 177.165 170.88C177.312 170.661 177.459 170.368 177.532 170.076C177.899 168.832 178.559 167.809 179.587 167.224C180.174 166.858 180.32 166.419 180.247 165.688C180.1 163.933 180.467 163.202 181.935 162.544C182.595 162.251 182.962 161.813 182.962 161.008C182.962 159.984 183.329 159.619 184.209 159.399C186.19 158.888 187.584 157.645 188.465 155.743C188.685 155.305 188.758 154.793 188.758 154.281C188.685 153.55 188.832 152.891 189.125 152.306C189.345 151.795 189.565 151.283 189.785 150.771C189.859 150.625 189.859 150.551 190.006 150.478C190.739 149.82 191.4 148.87 192.207 148.504C193.748 147.846 194.261 146.457 194.995 145.14C195.142 144.775 195.362 144.482 195.509 144.117C195.802 143.678 196.242 143.605 196.536 144.043C197.27 145.433 198.444 144.994 199.544 144.994C199.911 144.994 200.351 144.994 200.645 145.067C201.378 145.287 202.039 145.14 202.626 144.628C202.993 144.336 203.433 144.117 203.873 143.824C204.167 143.605 204.534 143.385 204.827 143.093C205.414 142.508 206.074 142.142 206.882 142.142C208.349 142.142 209.743 141.777 211.137 141.484C211.724 141.338 212.458 141.411 212.972 141.63C213.485 141.85 213.852 141.777 214.292 141.557C214.879 141.265 215.466 141.118 216.127 141.265C217.154 141.411 218.254 141.557 219.282 140.972C219.575 140.826 220.089 140.826 220.456 140.972C220.969 141.118 221.409 141.338 222.07 141.63C222.437 142.288 221.923 142.8 221.483 143.312C222.51 144.409 222.07 145.433 221.336 146.457C220.676 147.334 220.749 147.553 221.63 148.138C222.217 148.577 222.73 149.016 223.317 149.308C223.978 149.674 224.711 149.893 225.518 149.747C226.105 149.601 226.766 149.747 227.426 149.893C228.307 150.113 228.967 150.625 229.187 151.648C229.334 152.38 229.847 152.745 230.508 152.745C231.755 152.745 232.856 153.184 233.81 154.061C234.25 154.5 234.763 154.646 235.35 154.354C236.011 154.061 236.231 153.623 236.084 152.818C236.011 152.453 235.791 151.941 235.937 151.648C236.231 151.063 236.598 150.405 237.111 150.186C238.285 149.674 239.679 149.016 240.853 150.04C241.954 150.917 243.201 151.21 244.375 151.721C245.549 152.233 246.87 152.38 248.044 152.672C248.631 152.818 249.291 152.965 249.878 153.257C250.612 153.623 251.199 153.55 251.786 153.038C251.859 152.965 252.006 152.891 252.08 152.818C253.107 152.087 254.134 152.014 255.088 152.745C255.895 153.257 256.629 153.33 257.509 153.257C258.536 153.184 258.903 152.891 259.197 151.795C259.27 151.429 259.344 151.063 259.49 150.698C259.784 149.528 259.931 148.358 260.444 147.261C260.664 146.822 260.591 146.237 260.591 145.725C260.664 144.994 260.664 144.263 260.664 143.532C260.664 143.166 260.664 142.873 260.664 142.581C260.004 142.581 259.49 142.435 259.05 142.508C258.536 142.581 258.023 142.727 257.656 143.02C256.482 143.824 256.042 143.824 254.868 142.947C254.574 142.727 254.207 142.435 253.841 142.288C253.254 142.069 252.667 141.777 252.153 142.581C251.786 143.093 251.272 143.239 250.685 142.8C250.319 142.508 249.878 142.288 249.438 142.069C249.145 141.923 248.851 141.923 248.558 141.923C248.191 141.923 247.751 141.996 247.384 141.996C247.164 141.484 247.09 141.045 246.87 140.607C246.723 140.314 246.577 140.022 246.356 139.802C245.549 139.144 245.476 139.144 246.136 138.12C245.843 137.535 245.549 136.877 245.256 136.219C244.962 135.561 245.329 135.122 245.696 134.61C244.889 134.391 244.155 134.245 243.422 134.025C242.835 133.879 242.394 133.806 241.954 134.464C241.734 134.757 241.22 134.83 240.707 134.976C240.853 135.78 241.147 136.585 241.294 137.389C241.44 138.12 242.101 138.705 241.661 139.729C241.294 139.729 240.853 139.656 240.413 139.583C240.633 140.46 241.147 141.411 240.78 142.362C240.193 142.288 239.753 142.288 239.239 142.215C238.726 142.142 238.285 141.923 238.212 141.338C238.065 140.095 237.478 139.144 236.745 138.193C236.011 137.243 235.497 136.146 234.837 135.049C234.69 134.83 234.69 134.464 234.69 134.172C234.763 132.27 234.03 130.954 232.489 130.077C232.195 129.857 231.975 129.565 231.682 129.345C231.242 129.053 230.801 128.834 230.361 128.541C229.774 128.175 229.114 127.883 228.747 127.371C228.233 126.64 227.646 126.128 227.059 125.616C226.692 125.324 226.399 124.739 226.032 124.739C225.445 124.666 224.858 124.958 224.344 125.104C224.271 125.543 224.198 125.835 224.198 126.201C224.198 126.567 224.271 127.005 224.491 127.225C225.298 128.029 226.032 128.907 226.619 130.004C227.059 130.881 227.94 131.393 228.894 131.539C229.334 131.612 229.554 131.759 229.774 132.197C229.994 132.563 230.434 132.855 230.875 133.002C231.755 133.367 232.562 133.879 233.223 134.61C233.663 135.049 233.663 135.195 233.149 135.854C232.562 135.561 231.975 135.342 231.388 135.049C230.875 135.488 230.728 135.927 231.021 136.365C231.388 136.877 231.315 137.316 231.095 137.828C230.801 138.632 230.508 139.51 229.554 139.656C228.747 139.802 228.527 140.241 228.6 141.045C228.673 141.923 228.16 142.288 227.426 141.923C226.472 141.411 225.592 140.899 224.638 140.387C224.344 140.241 223.978 140.022 224.198 139.583C224.344 139.363 224.785 139.071 224.931 139.144C226.325 139.583 227.646 139.071 228.967 138.778C229.701 137.901 229.334 136.95 229.114 136C229.114 135.854 229.04 135.78 228.894 135.707C227.72 135.049 226.766 134.099 225.812 133.221C225.738 133.148 225.592 133.075 225.518 133.075C223.391 132.417 221.85 130.881 220.749 128.834C220.529 128.395 220.162 128.029 219.795 127.737C218.915 127.005 218.841 127.079 217.961 127.737C217.154 128.395 216.053 128.614 215.246 129.419C215.026 129.638 214.439 129.345 213.999 129.272C213.192 129.126 212.458 128.907 211.651 128.98C210.55 129.053 210.257 129.565 210.33 130.735C210.403 131.612 210.11 132.27 209.45 132.709C208.789 133.221 208.129 133.806 207.248 133.952C206.955 133.952 206.661 134.245 206.515 134.537C205.928 135.415 205.341 136.292 204.754 137.243C204.9 137.608 204.974 137.974 205.121 138.486C204.607 139.144 203.947 139.729 203.8 140.68C203.8 140.826 203.506 140.899 203.36 141.045C202.112 142.288 200.718 142.947 198.884 142.8C198.15 142.727 197.416 143.093 196.756 143.385C196.022 143.678 195.582 143.385 195.215 142.8C194.628 141.777 193.821 141.338 192.647 141.63C192.354 141.703 191.987 141.703 191.693 141.63C191.253 141.63 190.959 141.338 190.959 140.826C190.959 140.387 190.959 139.948 190.959 139.51C190.959 139.217 190.886 138.852 190.739 138.705C190.079 138.12 190.299 137.462 190.666 136.877C191.4 135.561 191.84 134.172 191.62 132.563C191.546 132.344 191.62 132.051 191.62 131.759C191.62 131.027 191.693 130.296 191.693 129.345C192.207 128.98 192.867 128.541 193.381 128.175C194.335 128.249 195.215 128.249 196.096 128.249C198.003 128.395 199.838 128.541 201.672 128.687C202.919 128.76 202.993 128.687 203.213 127.371C203.286 126.859 203.433 126.347 203.58 125.835C203.947 124.519 203.58 123.422 202.846 122.326C201.965 121.082 201.012 120.278 199.544 120.059C198.737 119.912 198.737 119.108 198.517 118.304C199.324 118.157 200.058 117.865 200.792 117.865C201.525 117.865 202.259 118.084 203.066 118.231C203.066 117.499 203.066 117.061 203.066 116.549C203.653 116.183 204.02 116.11 204.534 116.549C204.974 116.914 205.634 116.914 206.148 116.402C206.295 116.256 206.515 116.037 206.735 115.964C207.028 116.11 207.322 115.232 207.395 114.209ZM248.778 133.952C249.291 133.367 250.025 133.367 250.685 133.44C251.052 133.44 251.566 133.587 251.859 133.367C253.327 132.417 254.868 131.832 256.555 131.685C256.922 131.685 257.362 131.685 257.729 131.759C259.05 132.124 260.224 133.002 261.618 133.294C262.352 133.44 263.159 133.367 263.819 133.587C264.847 133.879 265.58 133.587 266.387 132.929C266.974 132.417 267.194 131.832 266.754 131.174C266.461 130.735 266.021 130.369 265.654 130.004C265.36 129.784 264.993 129.638 264.773 129.345C263.819 128.175 262.499 127.883 261.325 127.005C260.664 126.494 259.857 126.128 259.123 125.616C258.757 126.055 258.243 126.42 257.509 126.201C256.775 125.982 256.335 126.201 255.822 126.713C255.235 127.298 254.794 127.152 254.501 126.347C254.354 126.055 254.207 125.762 253.987 125.543C253.18 124.958 253.18 124.958 253.62 124.081C253.107 123.861 252.593 123.715 252.153 123.349C251.639 122.911 250.685 122.691 250.245 123.203C249.732 123.788 249.145 124.446 248.998 125.104C248.778 125.835 248.484 126.201 248.117 126.64C247.604 128.029 247.017 129.345 246.503 130.662C247.017 131.759 247.677 132.709 248.704 133.367C248.704 133.733 248.778 133.879 248.778 133.952C248.117 134.025 247.457 134.099 246.87 134.245C246.65 134.245 246.503 134.537 246.136 134.83C246.87 134.83 247.384 134.903 247.824 134.83C248.264 134.684 248.851 134.757 248.778 133.952ZM238.799 100.388C238.139 100.023 237.698 99.9496 237.258 100.461C237.038 100.681 236.598 100.827 236.304 100.9C236.158 100.9 235.864 100.754 235.717 100.608C235.644 100.535 235.717 100.169 235.791 100.023C236.378 99.3646 236.891 98.7064 237.698 98.3408C239.092 97.7558 240.413 97.4633 241.881 97.9021C242.174 97.9752 242.541 98.0483 242.835 98.0483C243.055 98.0483 243.275 97.9752 243.495 97.8289C243.862 97.5365 244.155 97.1708 244.595 96.7321C244.302 96.5858 243.935 96.1471 243.568 96.1471C242.248 96.2933 240.927 96.4396 239.679 96.8052C238.212 97.3171 236.891 97.4633 235.424 96.5858C234.837 96.2202 234.543 95.8546 234.543 95.1234C234.543 94.7577 234.397 94.2459 234.176 93.9534C233.516 92.9296 233.589 91.9059 234.47 91.1015C234.837 90.7359 235.35 90.5165 235.717 90.1509C236.524 89.4928 237.331 88.7616 238.139 88.0303C238.432 87.7378 238.359 87.2991 237.992 87.2259C236.671 87.1528 235.277 86.4947 234.25 88.1034C234.323 88.3959 234.323 88.6884 234.397 88.9809C233.296 90.2972 231.755 90.8822 230.434 91.7596C229.334 92.4178 228.82 93.5877 229.334 94.8309C229.481 95.1965 229.774 95.5621 230.068 95.7815C230.655 96.1471 231.168 96.659 231.462 97.244C231.021 98.1946 230.581 99.2183 229.554 99.5108C228.82 99.7302 228.6 100.242 228.6 101.046C228.6 102.29 228.307 103.386 227.793 104.483C227.353 104.483 226.986 104.483 226.692 104.556C226.399 104.629 226.032 104.849 225.959 105.068C225.812 105.799 225.298 105.799 224.785 105.873C223.978 105.946 223.537 105.507 223.244 104.703C222.95 105.653 222.73 106.458 222.363 107.481C223.904 106.238 224.565 107.554 225.445 108.432C226.399 108.066 227.353 107.701 228.307 107.408C229.26 107.116 230.141 106.896 231.095 106.75C231.315 106.677 231.608 106.896 231.828 106.969C232.269 107.189 233.149 107.189 233.443 106.823C233.81 106.384 234.103 105.873 234.617 105.214C234.69 104.556 234.69 103.606 234.91 102.655C235.204 101.12 236.378 100.754 237.478 101.631C237.845 101.924 238.139 102.29 238.726 101.851C238.726 101.412 238.726 100.9 238.799 100.388ZM260.224 217.168C259.71 217.021 259.344 216.948 259.197 216.802C258.39 215.998 257.583 216.583 256.849 216.875C256.335 217.094 255.822 217.606 255.822 218.338C255.822 219.215 255.822 220.093 255.822 220.97C256.702 221.043 257.436 221.116 258.023 221.116C258.757 219.727 259.49 218.484 260.224 217.168ZM293.756 77.7929C293.976 78.2317 294.269 78.6704 294.489 79.1823C294.856 80.0598 295.15 80.791 295.957 81.4491C296.837 82.1804 296.691 83.2041 295.884 84.0816C295.59 84.4472 295.223 84.8129 294.856 85.2516C296.617 85.7635 297.424 85.3978 298.011 84.0085C298.231 83.4235 298.231 82.9847 297.791 82.6191C297.278 82.1804 297.204 81.6685 297.498 81.0835C296.104 80.8641 295.297 80.4254 295.076 79.2554C294.93 78.4511 294.489 78.0854 293.756 77.7929ZM260.224 122.472C258.977 123.276 257.216 122.691 256.262 124.154C257.509 125.251 258.023 125.324 260.444 124.812C260.591 124.373 260.738 123.934 260.811 123.496C260.591 123.203 260.444 122.911 260.224 122.472ZM418.637 93.2221C418.417 92.3446 418.417 92.3446 417.757 92.6371C418.05 92.8565 418.344 93.0028 418.637 93.2221ZM321.051 173.293C321.051 172.781 320.977 172.562 320.977 172.196C320.39 172.489 320.464 172.781 321.051 173.293Z" fill="#73B9FF"/>
<path d="M100.857 194.718C100.637 195.888 100.637 195.888 101.224 196.254C101.37 195.742 101.517 195.303 101.664 194.718C102.104 194.718 102.471 194.718 102.911 194.718C103.205 195.669 102.838 196.181 102.177 196.62C103.131 197.058 103.131 197.936 103.058 198.813C103.572 199.033 104.085 199.179 104.525 199.325C105.626 199.618 106.213 200.422 106.653 201.446C106.873 202.031 107.314 202.47 107.754 202.908C108.854 204.005 109.955 204.517 111.496 204.298C112.23 204.225 113.037 204.59 113.844 204.736C114.137 204.81 114.357 204.956 114.651 204.956C115.458 205.102 116.118 205.395 116.559 206.126C116.705 206.418 116.925 206.711 117.219 206.857C118.466 207.515 118.833 208.685 119.127 210.001C119.347 211.025 119.64 211.903 120.227 212.707C120.447 212.999 120.594 213.365 120.594 213.804C120.668 214.243 120.521 214.681 120.521 215.047C120.521 215.12 120.594 215.193 120.594 215.266C120.888 215.632 121.181 215.998 121.475 216.29C122.062 216.436 122.649 216.583 123.236 216.656C123.309 217.021 123.382 217.387 123.456 217.753C124.556 217.314 125.437 217.679 126.317 218.191C126.464 218.264 126.684 218.338 126.904 218.411C128.885 219.288 128.885 219.288 129.986 221.116C130.866 220.604 131.674 220.897 132.481 221.336C133.728 221.994 135.049 222.359 136.443 221.921C136.81 221.848 137.25 221.994 137.617 222.213C138.791 222.871 139.818 223.676 140.625 224.699C141.285 225.504 142.019 226.089 143.046 226.235C144.367 226.381 145.101 227.186 145.541 228.575C146.201 230.842 145.908 233.035 144.954 235.083C144.367 236.399 143.34 237.423 142.533 238.593C142.313 238.959 142.093 239.397 141.872 239.763C141.359 240.567 140.772 241.372 140.332 242.176C139.965 242.834 139.525 243.565 139.451 244.223C139.378 245.393 139.525 246.637 139.745 247.807C139.891 248.392 140.038 248.903 139.818 249.562C139.671 249.927 139.598 250.439 139.671 250.805C139.671 251.682 139.598 252.487 139.084 253.218C138.938 253.437 138.864 253.876 138.938 254.168C139.158 255.558 138.644 256.728 137.984 257.825C137.617 258.483 137.177 258.995 137.47 259.799C137.47 259.872 137.47 259.945 137.47 260.018C137.323 260.384 137.25 260.896 137.03 261.042C136.149 261.408 136.149 262.943 134.902 262.87C134.095 262.797 133.288 263.09 132.554 263.236C132.407 263.236 132.261 263.309 132.114 263.382C130.646 264.113 129.179 264.771 127.858 265.722C125.657 267.184 125.657 267.916 126.024 270.621C126.097 271.499 126.317 272.303 126.317 273.181C126.391 273.912 126.097 274.497 125.51 274.936C124.776 275.594 124.116 276.325 124.116 277.495C124.116 278.226 123.749 278.372 122.795 278.372C122.428 279.25 121.988 280.054 121.768 281.078C121.328 282.979 120.668 284.734 119.42 286.27C118.98 286.855 118.54 287.074 117.733 286.928C116.265 286.562 114.724 286.343 113.11 286.051C113.33 286.489 113.697 286.562 114.064 286.709C114.724 287.001 115.165 287.513 115.385 288.244C115.458 288.61 115.678 289.049 115.972 289.268C116.412 289.707 116.559 290.219 116.412 290.73C116.265 291.462 116.045 292.266 115.898 292.997C115.825 293.217 115.678 293.509 115.531 293.655C114.651 294.167 113.844 294.899 112.67 294.899C111.569 294.899 110.542 295.118 109.515 295.191C109.735 296.288 109.955 297.385 110.175 298.482C109.075 300.163 107.534 299.286 105.993 298.993C106.286 299.652 106.506 300.237 106.727 300.748C106.947 301.187 107.24 301.114 107.607 301.114C107.974 301.114 108.414 301.26 108.708 301.48C108.854 301.626 109.001 302.065 108.928 302.211C108.854 302.43 108.488 302.65 108.267 302.723C108.121 302.796 107.974 302.723 107.754 302.723C107.754 303.673 107.46 304.624 107.901 305.575C107.974 305.794 107.754 306.233 107.534 306.452C107.167 306.891 106.653 307.183 106.213 307.549C105.553 308.061 105.406 308.938 106.066 309.523C106.653 310.108 107.314 310.62 108.121 310.84C109.441 311.132 109.808 312.521 108.928 313.618C108.634 313.911 108.194 314.13 108.047 314.496C107.607 315.666 107.167 316.909 107.02 318.152C106.947 318.956 107.68 319.614 108.341 320.199C108.708 320.565 109.075 320.931 109.221 321.369C109.882 323.271 111.276 324.148 112.817 324.953C113.697 325.391 114.651 325.757 115.752 326.269C114.944 326.927 114.211 326.781 113.55 326.708C112.376 326.634 111.276 326.488 110.102 326.415C109.001 326.342 109.075 326.415 108.634 325.245C108.488 324.806 108.194 324.368 107.827 324.148C107.167 323.783 106.8 323.344 107.167 322.247C106.58 322.466 106.14 322.539 105.919 322.759C104.599 324.294 103.938 324.002 102.251 322.466C101.517 321.808 100.71 321.15 100.71 319.834C100.71 319.468 100.343 319.029 100.123 318.737C99.0957 317.567 98.6555 316.105 97.9951 314.715C97.9218 314.496 97.775 314.276 97.775 314.13C98.0685 312.521 97.188 311.278 96.601 309.889C96.3075 309.085 96.014 308.28 95.9407 307.476C95.8673 306.745 95.6472 305.94 95.5738 305.209C95.5004 304.77 95.4271 304.258 95.3537 303.82C95.1336 303.015 94.9868 302.211 94.6933 301.48C94.6199 301.187 94.2531 300.895 94.033 300.895C93.0791 301.041 92.859 300.237 92.7122 299.578C92.4187 298.628 92.1986 297.604 92.0519 296.58C91.8318 295.045 91.5383 293.509 90.8045 292.12C90.5844 291.754 90.5844 291.389 90.8045 290.877C91.0247 290.438 91.098 289.853 91.0247 289.414C90.9513 288.317 90.8779 287.221 91.2448 286.197C91.5383 285.173 91.4649 284.149 91.3181 283.126C91.098 281.809 90.8045 280.42 90.5844 279.104C90.4377 278.446 90.4377 277.861 90.3643 277.202C90.2909 276.471 90.1442 275.667 90.0708 274.936C90.0708 274.716 89.9974 274.497 89.9974 274.278C90.0708 273.108 90.2175 271.938 90.2909 270.841C90.2909 270.548 90.3643 270.329 90.2909 270.036C90.0708 268.866 89.924 267.696 89.924 266.526C89.924 265.356 89.6306 264.186 89.5572 263.09C89.4838 261.115 89.5572 259.141 89.3371 257.166C89.1903 255.631 89.2637 253.876 88.0897 252.706C86.8424 251.39 85.5216 250.073 83.9074 249.342C83.0269 248.977 82.1465 248.538 81.266 248.172C80.3121 247.807 79.8719 246.783 79.2849 246.052C78.6979 245.393 78.0376 244.662 78.0376 243.639C78.0376 243.565 77.9642 243.492 77.9642 243.419C76.5701 241.664 76.2032 239.324 75.0292 237.496C74.0754 236.034 73.2683 234.425 72.5345 232.889C72.3144 232.524 72.1677 232.085 71.9475 231.792C71.4339 230.988 70.9937 230.111 70.0398 229.745C69.5262 229.599 69.1594 229.233 69.3061 228.429C69.3795 227.99 69.1594 227.478 69.0126 227.112C68.499 226.235 68.5724 225.431 69.2327 224.626C69.7464 223.968 70.26 223.31 70.8469 222.579C70.7002 222.432 70.5535 222.213 70.4067 222.067C69.8197 221.701 69.5996 221.043 69.4529 220.385C69.2327 219.069 69.8197 217.899 70.3333 216.802C70.4801 216.436 70.6268 215.998 70.6268 215.632C70.7002 214.828 70.7736 214.535 71.5073 214.389C72.3144 214.243 72.6813 213.877 72.828 212.926C72.9014 212.268 73.1949 211.683 73.8553 211.244C74.6624 210.733 75.1026 209.709 75.2494 208.758C75.4695 207.223 75.5429 205.687 75.5429 204.151C75.5429 203.42 75.1026 202.689 74.8091 202.031C74.4423 201.373 74.2221 200.715 74.4423 199.983C72.7547 198.448 72.7547 198.448 71.2138 199.983C71.2138 200.13 71.2138 200.203 71.2872 200.349C71.4339 200.788 71.5073 201.3 70.9937 201.446C70.4801 201.665 69.8931 201.738 69.5262 201.226C69.0126 200.495 68.3522 200.276 67.5451 200.13C66.738 199.983 65.9309 199.618 65.5641 198.667C65.1238 197.717 64.2433 197.351 63.4362 196.912C62.2623 196.327 61.8954 195.23 62.6291 194.133C62.7759 193.841 63.2161 193.768 63.583 193.548C63.4362 193.402 63.2895 193.183 63.1427 192.963C61.8954 193.622 61.5285 193.548 61.0149 192.159C60.7214 191.355 60.1344 190.843 59.5474 190.258C59.3273 190.038 58.9604 189.965 58.667 190.038C57.5664 190.112 56.6859 189.527 55.732 189.015C55.5119 188.942 55.4385 188.576 55.2184 188.284C55.0717 188.284 54.8515 188.21 54.7048 188.21C53.3841 188.43 52.577 187.699 51.8432 186.748C51.2562 186.017 50.5959 185.285 49.9355 184.627C49.4219 184.115 48.7615 183.969 48.0278 184.189C47.5876 184.335 47.0739 184.554 46.6337 184.554C45.9 184.554 45.0929 184.627 44.4325 184.408C43.0384 183.896 41.7177 183.238 40.3236 182.653C39.2964 182.214 38.3425 181.702 37.6088 180.825C37.3886 180.532 36.9484 180.386 36.5815 180.24C35.7744 179.947 35.1141 179.582 34.6005 178.851C34.3803 178.485 33.9401 178.266 33.5732 178.119C32.3993 177.534 31.8123 175.56 32.4726 174.39C33.2064 173.147 32.7661 172.05 32.3259 170.953C32.1058 170.295 31.6655 169.783 31.372 169.125C30.7117 167.736 29.9046 166.419 28.7306 165.542C28.217 165.176 27.9968 164.664 28.1436 164.006C28.217 163.787 28.217 163.494 28.0702 163.275C27.5566 162.324 27.043 161.447 26.8229 160.35C26.6761 159.838 26.2359 159.399 25.9424 158.961C25.282 158.156 24.9152 157.279 24.9885 156.109C25.0619 155.451 24.9885 154.72 24.9885 154.061C24.9885 153.55 24.7684 153.257 24.3282 153.111C23.8879 153.038 23.3743 152.965 22.8607 152.891C22.4205 154.281 21.9802 155.743 23.0075 157.133C23.4477 157.718 23.8879 158.376 23.8146 159.253C23.8146 159.326 23.8146 159.399 23.8879 159.473C24.695 161.228 25.1353 163.202 25.5022 165.103C25.7223 166.054 26.0891 166.931 26.6028 167.736C27.1164 168.54 26.9696 168.979 26.2359 169.856C26.0891 169.637 25.869 169.417 25.7223 169.198C25.3554 168.247 24.8418 167.37 23.8146 167.004C22.9341 166.639 23.2276 165.761 23.3743 165.103C23.5211 164.372 23.3743 163.933 22.9341 163.494C22.7873 163.348 22.6406 163.202 22.4205 163.202C21.4666 163.202 21.0264 162.398 20.5128 161.813C19.9258 161.154 20.1459 160.496 20.8796 160.058C21.6134 159.619 21.6867 159.253 21.3199 158.449C21.1731 158.156 21.0264 157.791 20.8062 157.571C20.1459 156.767 19.9991 155.89 19.9258 154.866C19.779 153.184 19.7056 151.429 19.3388 149.747C19.1187 148.504 18.1648 147.7 17.0642 147.334C15.6701 146.895 15.5967 146.895 15.5967 145.36C15.5967 143.678 15.3032 142.069 15.5234 140.387C15.5967 140.095 15.3766 139.729 15.2299 139.437C14.863 138.559 14.9364 137.682 15.0097 136.658C15.0831 135.342 15.8169 134.464 16.4038 133.514C16.624 133.221 16.8441 132.855 16.9175 132.49C17.1376 130.808 18.3116 129.711 19.192 128.468C20.4394 126.713 21.7601 124.958 22.8607 123.057C23.5211 121.887 23.8146 120.497 24.2548 119.254C24.4749 118.596 24.0347 118.157 23.6678 117.865C23.0808 117.353 22.6406 116.768 22.5672 115.964C22.4938 115.598 22.5672 115.232 22.6406 114.867C23.5944 114.94 24.3282 115.086 25.1353 115.159C25.2087 114.574 24.8418 114.574 24.4749 114.428C23.7412 114.136 23.4477 113.697 23.8146 113.039C24.4749 111.723 24.2548 110.333 24.1814 109.017C24.1081 108.139 24.2548 107.408 24.8418 106.896C25.282 106.458 25.282 106.092 24.9885 105.653C24.7684 105.214 24.695 104.849 24.8418 104.337C24.9152 103.825 24.5483 103.24 24.3282 102.728C24.2548 102.582 24.1814 102.436 24.1081 102.29C24.1814 101.705 25.0619 101.266 24.2548 100.461C22.5672 100.608 22.4205 98.9258 21.7601 97.6096C20.0725 97.244 18.3116 96.9515 16.5506 96.5858C15.5967 96.3665 14.7163 96.0008 14.0559 94.9771C13.3222 95.1965 12.5884 95.489 11.8547 95.7815C11.6346 95.8546 11.4144 96.074 11.4144 96.2933C11.3411 97.0246 10.9008 97.1708 10.3872 97.3171C8.99312 97.7558 7.52565 98.1946 6.13156 98.5602C5.83806 98.6333 5.54457 98.6333 5.1777 98.6333C5.03095 97.3902 6.20493 97.3902 6.71854 96.5127C6.20493 96.7321 5.83806 96.8783 5.4712 97.0246C4.44397 97.4633 3.41674 97.829 2.46288 98.4139C-1.79278 100.827 -6.12181 102.143 -10.2307 104.118C-10.5242 104.264 -10.8911 104.337 -11.1112 104.556C-12.3586 105.653 -13.6059 105.361 -15 105.068C-14.9266 104.922 -14.9266 104.849 -14.9266 104.849C-13.3124 104.629 -12.1384 103.533 -10.7443 102.728C-9.2035 101.851 -7.58928 101.266 -6.04844 100.535C-5.75494 100.388 -5.53482 100.242 -5.16796 100.023C-6.12181 99.4377 -7.00229 99.2914 -8.02952 99.5839C-8.61651 99.7302 -9.2035 99.8764 -9.79048 99.5108C-9.79048 98.5602 -8.83663 98.4871 -8.46976 97.6096C-9.05675 97.7558 -9.42362 97.829 -9.79048 97.9752C-10.1574 98.1214 -10.5242 98.1215 -10.7443 97.6827C-10.9645 97.244 -11.3313 96.659 -10.8177 96.2933C-10.3041 95.9277 -10.2307 95.489 -10.084 94.904C-9.86386 94.2459 -9.49699 93.734 -8.76326 93.5146C-8.02952 93.2953 -7.22241 93.0028 -6.56205 92.6371C-5.46145 92.1253 -4.43422 91.394 -3.18687 91.3209C-3.04013 91.3209 -2.96675 91.2478 -2.82001 91.1747C-1.86615 90.5897 -0.912295 90.2972 0.114933 90.2972C0.995415 90.224 1.72915 89.5659 2.60963 88.9078C0.628547 88.9078 -1.13242 88.9078 -2.96675 88.9078C-2.89338 88.2497 -2.74663 87.6647 -2.67326 87.0066C-2.59989 86.4216 -2.15964 86.2753 -1.7194 86.1291C-0.105187 85.7635 1.50903 85.471 3.12325 85.1785C3.34337 85.1053 3.63686 85.2516 3.78361 85.3978C4.29722 85.9097 4.88421 85.8366 5.4712 85.6903C5.98481 85.5441 6.5718 85.3978 7.15878 85.1785C7.15878 85.0322 7.15878 84.7397 7.08541 84.7397C5.98481 84.2279 6.05818 82.9116 5.39782 82.1073C6.35168 81.0104 7.52565 81.0104 8.69963 80.791C9.50673 80.6448 10.3872 80.4985 11.121 80.206C12.7352 79.621 14.276 78.9629 15.8169 78.3048C16.1837 78.1586 16.5506 78.0123 16.9908 77.9392C18.3116 77.7929 19.7056 77.6467 21.0264 77.5736C21.9802 77.5004 22.9341 77.5736 23.8879 77.1348C24.3282 76.9154 24.9885 76.9886 25.5755 77.0617C28.0702 77.5004 30.5649 78.0854 33.133 78.5242C34.3803 78.7436 35.6277 78.9629 36.9484 78.6704C37.7555 78.5242 38.4893 78.6704 39.223 79.1823C39.7366 79.5479 40.2502 79.8404 40.984 79.6942C41.4976 79.621 42.0846 79.9135 42.5248 80.206C43.2585 80.6448 43.8455 80.7179 44.5792 80.2792C45.4597 79.621 46.5603 79.9135 47.5142 79.6942C48.8349 79.4017 50.0823 79.1823 51.403 79.036C52.2101 78.8898 53.0172 78.9629 53.7509 78.8167C54.3379 78.7436 54.9249 78.7436 55.5119 78.5242C56.6125 78.1586 56.6859 78.1586 56.9794 79.4017C56.9794 79.4748 57.0527 79.5479 57.1261 79.6942C57.4196 79.7673 57.7865 79.9867 58.0066 79.8404C58.9604 79.2554 59.9877 79.621 61.0149 79.4017C62.409 79.1092 63.6563 79.3285 64.757 80.206C65.4173 80.7179 66.0777 80.9373 66.8848 80.6448C67.5451 80.4254 68.0588 80.7179 68.5724 81.0835C69.1594 81.5223 69.1594 81.8148 68.499 82.2535C68.3523 82.3266 68.2055 82.3998 67.912 82.546C68.8659 83.0579 69.7463 82.8385 70.6268 82.8385C71.9475 82.7654 73.1949 82.1073 74.5156 82.546C74.8091 82.6191 75.176 82.3266 75.4695 82.1073C76.937 80.8642 79.505 80.791 80.9725 82.1073C81.7796 82.8385 82.8068 82.6923 83.7607 82.6923C84.7145 82.6923 85.6684 82.6191 86.6222 82.546C86.9157 82.546 87.2826 82.546 87.5761 82.3998C88.8234 81.5223 89.8507 82.2535 91.0247 82.6923C92.9324 82.0341 93.3726 81.6685 94.2531 80.1329C94.1797 80.0598 93.9596 80.0598 93.8862 79.9867C93.0791 79.2554 93.0791 79.2554 93.7395 78.3779C94.7667 76.9154 96.3075 76.5498 97.775 76.038C98.362 75.8917 98.949 76.4036 99.0224 77.1348C99.0957 78.0123 99.2425 79.036 98.1419 79.4748C98.6555 79.9867 99.4626 80.206 98.949 81.376C99.4626 81.0835 99.7561 80.8642 100.05 80.791C100.416 80.791 100.93 80.791 101.15 81.0104C101.517 81.376 101.297 81.8879 100.93 82.2535C100.71 82.546 100.416 82.7654 100.05 83.0579C100.416 83.8622 101.003 83.6429 101.444 83.3504C102.985 82.3998 104.525 81.3029 105.406 79.5479C104.819 79.1823 104.159 78.8167 103.572 78.5242C102.764 78.0123 102.544 77.3542 103.058 76.5498C103.205 76.3305 103.425 76.1111 103.645 75.8917C104.012 75.5992 104.305 75.3067 104.672 75.0142C105.993 73.7711 107.46 72.9667 109.221 73.2592C109.515 73.3324 109.882 73.113 110.175 73.1861C110.542 73.1861 110.835 73.3324 111.202 73.3324C111.422 73.4055 111.716 73.4786 111.936 73.4786C113.11 73.4055 114.211 73.2592 115.165 73.1861C116.045 73.7711 115.605 74.4292 115.458 75.0873C116.118 75.0873 116.705 75.0873 117.512 75.0873C116.779 74.4292 116.412 73.8442 116.705 72.8936C117.806 72.6742 118.907 72.9667 119.934 73.3324C120.227 73.4055 120.447 73.8442 120.668 74.0636C120.447 74.283 120.154 74.5023 119.86 74.7217C121.255 75.3798 122.502 76.5498 124.116 76.8423C124.85 76.9886 125.584 77.5004 126.244 78.0123C126.537 78.2317 126.831 78.6704 126.978 79.036C127.271 79.8404 127.051 80.4254 126.317 80.9373C126.097 81.0835 125.95 81.2298 125.584 81.5954C126.684 82.1073 127.638 82.546 128.592 82.9848C129.472 83.3504 129.913 84.0085 130.133 84.9591C130.279 85.471 130.133 85.8366 129.766 86.2022C129.032 86.7872 128.372 87.4453 127.638 88.1034C127.051 88.5422 126.537 88.5422 126.024 88.0303C125.657 87.6647 125.29 87.226 125.07 86.7141C124.776 86.056 124.41 85.7635 123.749 85.9097C123.309 85.9828 122.795 86.056 122.135 86.1291C122.428 86.5678 122.575 86.7872 122.795 87.0797C123.162 87.5184 123.602 87.8109 123.896 88.2497C124.63 89.2734 124.63 90.0047 123.969 90.9553C123.309 91.9059 122.282 92.2715 121.328 91.8328C120.888 91.6134 120.374 91.394 119.787 91.1747C120.154 92.1253 120.447 92.8565 120.741 93.5878C120.081 94.0265 119.494 93.8802 118.907 93.6609C118.099 93.3684 117.219 93.0028 116.412 92.7103C115.678 92.4178 115.091 91.9059 114.871 91.0284C114.798 90.6628 114.578 90.2972 114.431 90.0047C114.137 89.4928 113.697 89.3466 113.11 89.3466C111.789 89.4197 110.395 89.4197 109.075 89.3466C108.561 89.3466 108.341 88.9078 108.561 88.3228C109.001 87.2991 110.028 86.7872 111.129 87.0797C111.863 87.2991 112.596 87.3722 113.404 87.3722C114.064 87.3722 114.651 87.2991 114.871 86.3485C114.944 85.9828 115.531 85.6903 115.972 85.3978C116.485 85.0322 117.072 84.6666 117.512 84.2279C118.393 83.4235 118.32 82.6923 117.292 82.1804C116.779 81.8879 116.412 81.5223 116.118 81.0104C115.825 80.4985 115.238 80.1329 114.798 79.7673C114.651 79.6942 114.431 79.621 114.284 79.6942C112.89 80.206 111.496 79.7673 110.102 79.7673C109.588 79.7673 109.075 79.6942 108.414 79.621C108.561 79.8404 108.634 79.9135 108.708 79.9867C109.882 80.791 109.882 81.376 108.708 82.1804C108.194 82.4729 107.68 82.6923 107.754 83.4966C107.754 83.716 107.46 84.0085 107.24 84.1547C106.506 84.6666 105.773 85.1785 105.039 85.6903C104.452 86.056 103.792 86.2022 103.205 85.9097C102.544 85.6172 101.957 85.7635 101.297 86.056C101.737 86.641 102.324 87.1528 102.618 87.8109C102.911 88.5422 103.278 89.1272 103.792 89.5659C103.425 90.5897 103.278 90.7359 102.544 90.4434C102.398 90.3703 102.324 90.3703 102.177 90.2972C101.15 89.3465 100.27 89.9315 99.3159 90.4434C98.7289 90.7359 98.2153 91.1015 97.7016 91.394C97.188 90.9553 96.7478 90.5897 96.3075 90.224C97.0413 89.3466 97.7016 88.3959 98.4354 87.5184C98.362 87.4453 98.2886 87.3722 98.2886 87.2991C98.1419 87.3722 97.9218 87.3722 97.8484 87.4453C96.601 88.4691 95.2803 89.2734 93.7395 89.8584C93.1525 90.0778 92.5655 90.6628 91.9785 90.8822C90.9513 91.2478 90.2175 92.1984 88.8968 92.3446C87.5761 92.4909 86.3288 93.2221 85.1548 93.9534C83.3938 95.0502 81.7062 96.2202 80.6056 98.1214C80.4589 98.3408 80.3855 98.5602 80.2388 98.8527C80.3855 98.9258 80.4589 98.9989 80.5322 99.0721C81.4861 99.2914 81.5595 99.3646 81.266 100.388C81.1192 100.973 80.9725 101.485 80.8257 102.216C81.1926 102.143 81.4127 102.216 81.5595 102.143C83.3204 101.558 84.5678 102.363 85.6684 103.679C85.9619 104.045 86.3288 104.264 86.6956 104.483C87.7228 105.068 88.6767 105.799 89.9974 105.726C90.7312 105.653 91.4649 106.019 92.272 106.238C91.685 107.408 91.1714 108.359 90.6578 109.383C89.924 110.845 90.0708 112.015 91.3181 113.185C91.9785 112.966 92.6389 112.819 93.0791 112.454C93.5927 112.015 94.033 111.43 94.3265 110.772C94.6199 110.187 94.6933 109.456 94.8401 108.798C94.8401 108.651 94.9134 108.505 94.9134 108.432C94.6199 106.896 95.6472 106.531 96.6744 106.092C97.6283 105.653 98.5821 105.214 99.536 104.776C100.49 104.337 101.077 103.46 101.59 102.509C102.104 101.558 102.031 101.193 101.37 100.315C101.224 100.096 101.077 99.9496 100.857 99.5839C101.15 99.2914 101.444 98.9989 101.737 98.7796C102.031 98.5602 102.398 98.4139 102.691 98.2677C103.498 97.9021 103.865 97.244 103.865 96.2933C103.792 95.489 104.085 94.904 104.672 94.3921C104.819 94.2459 104.966 93.9534 105.039 93.734C105.479 92.3446 106.506 91.6865 107.754 92.1253C108.854 92.4909 109.882 93.0028 111.129 92.564C111.789 92.3446 112.45 93.2221 112.743 93.8071C113.037 94.3921 113.404 94.5384 113.844 94.8309C114.211 95.0502 114.504 95.4159 114.871 95.7084C114.578 96.3665 114.284 96.9515 114.137 97.6096C113.844 98.5602 114.137 99.2914 115.018 99.6571C115.678 99.9496 116.339 99.8764 116.925 99.4377C117.953 98.6333 119.053 97.9021 120.081 97.0977C120.301 96.9515 120.447 96.8052 120.741 96.659C121.181 98.0483 121.621 99.3646 121.988 100.754C122.135 101.193 122.208 101.705 122.282 102.143C122.355 102.363 122.428 102.728 122.282 102.875C121.621 103.825 122.282 104.556 122.575 105.361C122.795 106.092 123.529 106.238 124.116 106.531C124.41 106.677 124.703 106.75 124.997 106.896C125.363 107.043 125.73 107.262 125.584 107.847C125.437 108.359 125.877 108.651 126.171 108.871C126.758 109.236 126.904 109.748 126.684 110.406C126.464 111.284 126.611 112.308 125.73 112.966C125.584 113.039 125.73 113.551 125.584 113.77C125.217 114.501 124.776 115.159 124.336 115.891C124.336 115.817 124.41 115.964 124.41 116.037C124.85 117.28 124.85 117.28 125.95 116.914C126.244 116.841 126.464 116.768 126.758 116.768C127.565 116.768 127.711 117.207 127.418 118.011C127.124 118.742 126.904 119.62 126.684 120.424C126.978 120.571 127.271 120.717 127.711 121.009C127.271 121.594 126.978 122.179 126.537 122.764C125.51 122.326 124.556 122.179 123.749 121.448C123.529 121.229 123.015 121.229 122.649 121.229C121.255 121.229 119.86 121.302 118.466 121.375C118.32 121.375 118.173 121.229 117.879 121.009C118.98 119.766 120.081 118.669 121.034 117.426C122.062 116.256 123.015 114.94 123.969 113.697C123.015 113.404 122.282 113.624 121.475 114.209C120.521 115.013 119.494 115.817 118.173 116.037C117.659 116.11 117.072 116.183 116.559 116.11C115.385 115.891 114.284 115.964 113.11 116.11C112.009 116.256 110.835 116.183 109.735 116.183C109.221 116.183 108.781 116.329 108.341 116.695C107.68 117.134 106.873 117.426 106.14 117.792C105.553 118.084 104.966 118.45 104.745 119.327C104.966 119.254 105.112 119.108 105.332 119.035C106.58 118.084 107.974 117.646 109.515 117.499C110.175 117.426 110.835 117.646 111.422 117.938C112.009 118.231 112.009 118.816 111.496 119.254C110.909 119.693 110.395 120.132 110.248 121.009C109.955 122.984 110.175 123.934 112.083 124.3C113.33 124.519 113.55 124.592 114.137 125.397C112.89 125.982 111.643 126.494 110.395 127.005C110.248 127.079 110.028 127.079 109.955 127.079C109.075 126.786 108.488 127.225 107.974 127.883C107.754 128.249 107.46 128.541 107.093 128.76C106.58 129.199 106.066 129.199 105.846 128.834C105.553 128.395 105.626 127.956 105.993 127.517C106.727 126.786 107.314 125.909 108.341 125.543C108.488 125.47 108.634 125.324 108.781 125.104C107.24 125.543 105.699 125.836 104.379 126.713C103.938 127.005 103.351 127.079 102.838 127.298C102.618 127.371 102.398 127.371 102.251 127.444C101.737 128.249 100.783 128.322 100.123 128.76C99.0224 129.419 97.9218 130.223 97.9951 131.905C97.9951 132.124 97.775 132.49 97.5549 132.563C96.8945 132.929 96.1608 133.44 95.4271 133.44C94.033 133.44 93.0057 134.318 91.8318 134.83C91.685 134.903 91.4649 134.976 91.4649 135.122C91.0247 136.439 89.9974 137.17 89.0436 137.974C88.8968 138.12 88.8234 138.413 88.6767 138.632C88.2365 139.217 87.8696 139.729 87.4294 140.387C87.1359 140.095 86.9891 139.948 86.769 139.729C86.6956 139.875 86.6956 140.022 86.6956 140.095C86.4755 141.484 86.6222 142.947 85.9619 144.263C85.8151 144.555 85.7418 144.848 85.5216 144.994C85.008 145.36 84.6412 145.725 84.4944 146.457C84.4944 146.603 84.1275 146.822 83.8341 146.895C82.9536 147.115 81.9997 147.334 81.4861 148.211C81.4127 148.285 81.3394 148.431 81.1926 148.431C79.6518 148.87 78.6245 150.259 77.2304 151.063C75.763 151.941 74.8825 153.403 74.5156 155.158C74.2221 156.548 74.5156 158.01 74.8825 159.399C75.1026 160.496 75.3227 161.593 75.2494 162.69C75.176 164.153 74.4422 165.249 73.0482 165.761C72.0209 164.153 71.2138 162.544 70.9203 160.569C70.8469 160.131 70.8469 159.692 70.8469 159.253C71.0671 157.645 71.0671 157.645 69.8197 156.401C69.2327 156.548 68.5724 156.694 67.8386 156.913C67.6919 156.621 67.5451 156.401 67.4718 156.182C67.2516 155.597 66.738 155.231 66.2244 155.305C65.2706 155.378 64.2433 155.231 63.2895 155.67C62.996 155.816 62.6291 155.816 62.2623 155.816C61.9688 155.816 61.6753 155.743 61.3084 155.743C61.3084 156.401 61.3084 156.986 61.3084 157.791C60.1344 157.06 58.8871 157.864 57.8598 157.06C56.9794 157.279 56.1723 156.694 55.2918 156.548C54.7782 156.475 54.1178 156.694 53.6042 156.986C52.7237 157.425 51.9166 157.937 51.0361 158.449C50.1556 159.034 49.2752 159.546 48.3947 160.204C47.4408 160.862 47.2941 161.886 47.2941 162.909C47.2941 163.641 47.0739 164.372 46.7805 165.03C45.9733 166.639 45.5331 168.394 45.313 170.222C45.2396 170.661 45.313 171.172 45.313 171.611C45.313 173.366 45.5331 175.121 46.2668 176.73C46.6337 177.461 47.0006 178.046 47.7343 178.339C47.9544 178.412 48.1745 178.412 48.2479 178.558C48.8349 179.582 49.5686 179.143 50.3758 178.924C51.2562 178.704 52.1367 178.704 53.0172 178.777C54.1912 178.851 54.9249 178.412 55.2918 177.169C55.5119 176.364 55.8054 175.56 56.0255 174.682C56.1723 174.024 56.4658 173.586 57.0527 173.439C57.9332 173.22 58.7403 172.781 59.5474 172.635C60.2812 172.489 61.0883 172.635 61.822 172.781C62.409 172.927 62.5557 173.586 62.1155 174.097C61.6019 174.682 61.5285 175.414 61.3818 176.145C61.0883 177.534 60.648 178.924 59.8409 180.02C59.4007 180.605 59.1806 181.19 59.0338 181.995C58.9604 182.653 58.5202 183.311 58.2267 184.042C59.1072 184.774 60.2078 184.627 61.235 184.262C62.2623 183.896 63.2895 183.896 64.3167 184.115C64.6102 184.189 64.9771 184.481 65.2706 184.627C65.4173 184.774 65.5641 184.92 65.7108 185.066C66.0043 185.359 66.738 185.139 66.738 185.797C66.738 186.529 66.6647 187.26 66.5179 187.918C66.3712 188.649 66.0777 189.38 65.9309 190.112C65.7108 191.428 65.4907 192.744 65.2706 194.06C65.1238 194.938 65.4907 195.596 66.0043 196.108C66.3712 196.473 66.738 196.766 67.1049 197.132C68.0588 198.009 69.086 198.375 70.26 197.57C70.4801 197.424 70.7002 197.351 70.9203 197.278C71.7274 196.839 72.4612 196.62 73.3416 197.058C74.2221 197.497 75.1026 198.009 75.6162 199.179C76.2032 198.521 76.8636 197.936 77.3772 197.278C77.6707 196.839 77.8908 196.327 78.0376 195.815C78.1109 195.23 78.331 194.865 78.7713 194.572C79.6518 193.841 80.5322 193.256 81.7796 193.11C82.5867 193.037 83.4672 192.525 83.9808 191.94C84.6412 191.208 85.2281 191.355 85.8885 191.355C86.2554 192.452 85.4483 192.817 84.8613 193.183C84.9347 193.475 84.9346 193.695 85.0814 194.133C86.0352 193.256 87.2826 193.11 87.8696 191.72C88.1631 192.159 88.3832 192.452 88.6767 192.817C89.4838 192.671 90.1442 192.89 90.6578 193.768C90.8779 194.133 91.4649 194.207 91.9051 194.28C92.859 194.426 93.7395 194.353 94.6199 195.011C95.4271 195.523 96.3809 195.523 97.188 194.792C97.4815 194.572 97.9218 194.426 98.2886 194.426C99.3892 194.718 100.123 194.718 100.857 194.718ZM81.5595 123.349C81.5595 123.934 81.266 124.154 80.8257 124.081C80.3855 124.007 79.9453 123.861 79.505 124.007C77.7441 124.519 75.9831 124.885 74.8091 126.64C73.8553 128.029 73.1949 129.492 72.6079 131.027C72.4612 131.32 72.6079 131.759 72.6079 132.124C73.7819 131.832 75.0292 130.515 75.2494 129.272C75.4695 127.664 76.4233 126.64 77.5239 125.762C78.1843 125.177 78.9914 124.739 79.7985 124.154C80.0186 124.227 80.2387 124.3 80.5322 124.446C80.679 124.519 80.8991 124.666 81.0459 124.812C81.7062 125.251 81.7062 125.762 81.266 126.42C80.9725 126.786 80.6056 127.152 80.2388 127.59C80.7524 127.737 81.1192 127.81 81.5595 127.883C81.6329 128.322 81.6329 128.76 81.7062 129.345C82.7335 128.029 83.6873 126.859 84.5678 125.616C85.008 125.909 85.3749 126.128 85.7418 126.347C86.2554 125.104 86.1086 124.592 85.008 124.154C83.7607 123.934 82.6601 123.642 81.5595 123.349ZM75.763 121.667C76.2766 122.252 76.937 122.545 77.7441 122.399C78.8447 122.252 79.8719 122.179 80.9725 122.764C80.9725 121.814 80.9725 121.082 80.9725 120.351C80.4589 119.912 80.0186 119.401 79.3583 118.816C78.7713 118.889 77.9642 118.889 77.3038 119.181C75.3227 120.059 73.3416 121.082 71.3606 122.033C71.3606 122.179 71.4339 122.252 71.4339 122.399C72.828 122.106 74.2221 121.887 75.763 121.667ZM85.008 130.808C83.6139 130.589 82.3666 131.174 81.1926 132.417C82.6601 132.197 83.8341 131.466 85.008 130.808ZM25.6489 116.037C25.6489 116.987 26.0158 117.865 26.8962 118.523C26.8229 117.572 26.2359 116.329 25.6489 116.037ZM85.2281 195.962C84.7145 196.766 84.8613 197.205 85.5216 197.643C86.0353 196.912 85.595 196.547 85.2281 195.962ZM79.4316 132.49V132.563C79.7251 132.563 80.0186 132.563 80.3121 132.563V132.49C80.0186 132.49 79.7251 132.49 79.4316 132.49Z" fill="#73B9FF"/>
<path d="M179.659 78.451C179.806 78.8167 179.953 79.1091 180.173 79.5479C179.366 79.9135 178.559 80.206 177.752 80.6448C175.477 81.8879 172.982 82.2535 170.488 82.7654C170.268 82.8385 170.047 82.9116 169.901 82.8385C168.58 82.3997 167.7 83.2772 166.819 84.0085C165.352 85.3247 163.664 86.0559 161.903 86.5678C161.243 86.7872 160.509 86.9334 159.849 86.2753C159.262 87.0066 158.528 87.299 157.721 87.2259C156.914 87.1528 156.253 87.5915 155.813 88.3228C155.52 88.8347 155.153 89.2734 154.859 89.7853C154.346 90.809 153.685 91.6134 152.658 92.0521C152.218 92.1984 152.071 92.4909 151.998 93.0027C151.924 93.4415 151.704 93.8802 151.411 94.2458C150.824 94.9771 150.163 95.6352 149.503 96.2202C148.696 97.0246 147.669 97.0246 147.008 96.0739C146.274 94.904 145.321 94.7577 144.147 95.1233C143.56 95.3427 143.193 95.0502 142.973 94.5383C142.459 93.4415 141.945 92.4177 141.579 91.2478C141.358 90.4434 141.358 89.5659 141.358 88.6884C141.358 88.1034 141.358 87.6647 141.212 87.0797C140.551 84.7397 141.432 82.1072 144 81.4491C144.587 81.3029 145.321 81.376 145.614 80.6448C145.541 79.6941 144.367 79.3285 144.587 78.1585C145.321 78.1585 146.054 78.1585 146.788 78.1585C146.641 77.1348 146.641 77.1348 143.78 76.6961C143.34 76.1111 143.706 75.6723 143.927 75.1604C144.293 74.283 144.587 73.4055 144.293 72.4548C143.927 70.8461 143.119 70.0418 141.579 69.7493C139.671 69.3836 137.763 69.2374 135.855 69.5299C135.122 69.6761 134.315 69.3836 133.654 69.1643C133.067 69.018 132.627 68.7255 132.627 67.7749C132.627 67.263 132.26 66.678 132.04 66.0199C134.975 65.2156 137.983 65.4349 140.845 64.4112C140.845 64.1187 140.771 63.8262 140.771 63.5337C141.138 63.3875 141.432 63.3143 141.725 63.2412C143.119 62.9487 144.514 62.6562 145.908 62.2906C147.008 61.9981 148.109 61.6325 149.283 61.4131C149.65 61.34 150.09 61.2669 150.457 61.34C152.071 61.4862 153.538 61.1206 155.079 60.755C155.446 60.6819 155.813 60.6087 156.107 60.6087C160.142 60.9744 164.178 60.3894 168.14 59.7312C169.681 59.5119 171.295 59.4388 172.836 59.585C174.01 59.7312 175.11 59.5119 176.284 59.2925C180.026 58.6344 183.768 58.9269 187.437 60.0969C187.877 60.2431 188.317 60.3894 188.171 60.9012C189.712 60.9744 191.252 61.1206 192.72 61.1206C194.187 61.1206 195.655 60.755 197.122 61.4862C196.535 62.2906 195.655 62.51 194.994 62.6562C192.867 62.8756 190.959 63.9724 188.978 64.7768C188.244 65.0693 187.73 65.7274 186.997 66.3124C187.217 66.4587 187.437 66.5318 187.584 66.7512C187.804 67.0437 188.097 67.4093 188.024 67.7018C187.951 67.9943 187.584 68.2868 187.29 68.433C186.923 68.5793 186.557 68.6524 186.116 68.7255C186.336 69.3836 186.703 69.9686 186.63 70.4805C186.557 70.9924 186.043 71.4311 185.676 71.943C184.942 73.0398 183.108 74.0636 181.934 74.0636C181.054 74.0636 179.953 74.283 179.146 74.7217C179.293 75.3798 179.953 75.3798 180.393 75.6723C181.42 76.2573 181.787 76.7692 181.641 77.866C181.567 78.451 181.347 78.8167 180.833 78.7435C180.54 78.6704 180.1 78.5973 179.659 78.451C179.219 78.1585 178.706 77.7929 178.192 77.3542C178.045 77.7929 177.972 78.0123 177.752 78.5242C178.485 78.5242 179.072 78.5242 179.659 78.451Z" fill="#73B9FF"/>
<path d="M67.9852 79.5479C68.4254 79.2554 68.8657 78.9629 69.3059 78.6704C69.3793 78.1586 69.4527 77.7198 69.4527 77.2079C69.4527 76.8423 69.3059 76.5498 69.1592 76.038C67.7651 76.4036 66.371 76.6961 65.0502 77.2079C64.0964 77.5736 63.436 77.2811 62.7023 76.7692C62.0419 76.2573 62.1153 75.5261 62.7757 75.0873C63.5094 74.6486 64.2431 74.283 65.0502 73.8442C66.0041 73.3324 66.958 72.8205 67.9852 72.3818C68.4254 72.1624 68.8657 72.0161 69.3793 71.943C70.3331 71.7968 71.3604 71.7236 72.3876 71.6505C72.7545 71.6505 73.1213 71.7968 73.4148 71.943C74.0018 72.3086 74.5154 72.3818 75.1024 72.2355C75.3959 72.1624 75.6894 72.1624 75.9095 72.0893C76.6433 72.0161 77.1569 72.3818 77.377 73.113C77.5237 73.4786 77.6705 73.9174 77.7439 74.0636C78.7711 74.2099 79.5782 74.3561 80.4587 74.4292C80.6788 74.4292 80.9723 74.4292 81.2658 74.3561C82.293 73.9174 82.7333 74.1367 83.1735 75.3798C83.6871 74.868 84.2007 74.3561 84.7143 73.9174C85.0078 73.698 85.3747 73.4055 85.7416 73.4055C86.8422 73.1861 87.6493 74.2099 87.209 75.3798C86.9889 75.8917 86.6954 76.3305 86.4753 76.8423C86.1818 77.5004 86.2552 77.7198 86.8422 78.0854C86.9889 78.1586 87.1357 78.2317 87.2824 78.3048C87.5025 78.5973 87.796 78.8898 87.796 79.1823C87.8694 79.7673 87.3558 79.9135 86.9889 79.9135C86.3286 79.9867 85.8883 80.1329 85.4481 80.791C85.3013 81.0104 84.9345 81.2298 84.641 81.2298C83.5404 81.2298 82.4398 81.4491 81.4125 81.0835C79.9451 80.5717 78.6243 80.6448 77.2302 81.0104C75.616 81.376 74.0018 81.7416 72.3876 81.5954C71.9474 81.5954 71.5071 81.5954 71.0669 81.2298C70.7 80.9373 70.1864 80.9373 69.6728 80.791C68.5722 80.7179 68.4988 80.7179 67.9852 79.5479Z" fill="#73B9FF"/>
<path d="M147.595 60.755C147.082 60.9743 146.862 61.1206 146.641 61.1206C145.027 61.4862 143.413 61.8518 141.872 62.2906C140.551 62.6562 139.157 62.9487 137.837 63.4606C135.709 64.3381 133.434 64.7037 131.16 65.0693C130.939 65.0693 130.719 65.0693 130.573 65.2155C128.518 66.3124 126.244 66.6049 124.116 67.4824C123.822 67.6286 123.455 67.7749 123.382 68.0674C123.089 68.7986 122.502 68.9449 121.915 69.018C121.034 69.0911 120.08 69.2374 119.2 69.0911C117.952 68.8718 116.778 69.1642 115.604 69.1642C114.357 69.2374 113.11 69.2374 111.862 69.3105C111.716 69.3105 111.496 69.1642 111.275 69.0911C111.716 68.0674 112.596 67.848 113.403 67.7018C114.357 67.4824 115.311 67.5555 116.045 66.678C116.191 66.5318 116.558 66.5318 116.852 66.5318C118.613 66.678 120.227 66.1662 121.694 64.8499C121.694 64.7768 121.694 64.7037 121.621 64.5574C121.548 64.4112 121.548 64.3381 121.401 64.1918C121.621 63.9724 121.915 63.6799 122.208 63.3874C122.061 63.3143 121.988 63.2412 121.841 63.1681C120.887 63.0218 119.86 62.9487 119.053 62.2175C118.98 62.1443 118.906 61.9981 118.833 61.8518C119.053 61.7787 119.273 61.6325 119.493 61.6325C122.135 61.5593 124.703 60.6818 127.271 60.3162C128.958 60.0237 130.719 59.8044 132.48 59.9506C134.828 60.2431 137.176 60.3162 139.524 60.3162C141.138 60.3162 142.679 60.0969 144.293 60.0237C145.394 59.9506 146.348 60.3162 147.595 60.755Z" fill="#73B9FF"/>
<path d="M207.468 114.209C205.707 114.501 204.02 114.867 202.259 115.086C201.232 115.159 200.278 115.306 199.397 115.817C198.81 116.183 198.15 116.183 197.49 116.037C197.49 115.159 198.15 114.867 198.59 114.501C199.104 114.063 199.617 113.77 200.351 113.331C199.911 113.258 199.544 113.258 199.251 113.112C198.957 113.039 198.444 112.893 198.37 112.673C198.223 112.234 198.664 112.088 198.957 111.869C199.104 111.796 199.251 111.723 199.471 111.649C199.251 111.284 199.104 110.991 198.884 110.479C199.251 110.26 199.617 110.114 200.058 109.968C200.351 109.821 200.571 109.821 200.865 109.675C201.452 109.383 201.525 108.871 201.158 108.286C200.938 107.92 200.718 107.554 200.425 107.043C200.058 106.896 199.544 106.75 199.031 106.604C198.664 106.458 198.297 106.384 198.223 105.799C198.15 105.58 197.783 105.361 197.49 105.068C198.223 104.044 197.49 103.094 197.27 102.29C198.003 101.339 198.664 100.535 199.397 99.5839C200.278 99.7302 201.305 99.1452 202.186 100.169C201.745 100.461 201.378 100.754 201.012 101.046C201.745 101.558 202.406 101.12 203.213 101.12C203.36 101.558 203.58 102.07 203.726 102.509C203.58 102.728 203.58 102.875 203.433 102.948C202.406 103.825 202.406 103.825 203.286 104.922C203.506 105.214 203.8 105.507 203.873 105.873C204.02 106.604 204.387 107.043 204.974 107.481C205.194 107.628 205.341 108.066 205.487 108.432C205.781 109.383 206.074 110.26 207.175 110.479C207.982 110.699 208.055 111.357 207.468 112.015C207.175 112.381 206.808 112.673 206.441 113.039C206.955 113.258 207.468 113.478 207.468 114.209Z" fill="#73B9FF"/>
<path d="M178.412 90.0046C178.632 89.639 178.779 89.4196 178.999 89.1271C178.779 88.9078 178.486 88.7615 178.192 88.5421C178.559 88.1034 178.779 87.8109 178.999 87.4453C178.265 86.4947 177.385 87.7378 176.725 87.1528C177.752 85.0322 179.586 84.8859 180.98 86.714C181.421 86.129 181.934 85.6903 182.741 86.129C182.888 86.2022 183.181 86.129 183.402 86.0559C184.135 85.9828 184.796 85.9097 185.529 85.8365C185.823 85.8365 186.116 85.7634 186.41 85.6172C187.731 85.1784 188.978 85.6172 189.638 86.9334C189.785 87.1528 189.712 87.6646 189.565 87.884C189.125 88.3228 188.684 88.7615 188.097 88.9078C186.557 89.3465 185.016 89.7852 183.622 90.6627C183.255 90.8821 182.668 90.8821 182.228 90.809C181.274 90.6627 180.32 90.5165 179.439 90.2971C179.219 90.224 178.852 90.1509 178.412 90.0046Z" fill="#73B9FF"/>
<path d="M66.0781 173.001C66.1515 172.489 66.0781 172.269 66.2249 172.123C66.7385 171.246 67.4722 170.514 68.4261 170.222C69.0131 170.002 69.6734 169.783 70.2604 169.637C71.2143 169.417 72.1681 169.564 73.122 169.856C74.296 170.222 75.3232 171.026 76.4972 171.319C77.0108 171.465 77.451 171.977 77.8179 172.416C78.7717 173.512 80.0191 174.024 81.1931 174.756C81.8534 175.194 82.5138 175.487 83.0274 176.072C82.1469 177.315 81.5599 177.534 80.4593 176.876C79.8723 176.511 79.2853 176.364 78.625 176.584C77.5244 176.876 77.3776 176.73 77.5978 175.487C77.5978 175.414 77.5978 175.341 77.5978 175.121C77.1575 174.902 76.6439 174.756 76.277 174.39C75.0297 172.927 73.5622 172.342 71.8013 172.196C71.4344 172.196 71.0675 171.977 70.774 171.757C70.187 171.319 69.6001 171.392 68.9397 171.684C68.1326 172.05 67.2521 172.416 66.0781 173.001Z" fill="#73B9FF"/>
<path d="M190.666 111.503C190.96 111.357 191.253 111.138 191.547 110.918C192.133 110.479 192.207 110.406 191.84 109.675C191.693 109.456 191.547 109.236 191.473 109.017C191.18 108.286 191.62 107.554 192.354 107.554C193.161 107.554 193.894 107.481 194.115 106.458C194.188 106.238 194.481 106.092 194.628 106.019C195.582 105.507 196.536 105.726 197.416 106.238C198.297 106.75 198.297 107.774 197.49 108.432C197.123 108.724 196.976 109.017 196.976 109.529C196.976 109.968 196.829 110.333 196.756 110.772C196.536 111.649 196.169 112.015 195.215 112.088C194.628 112.088 194.041 112.527 193.454 112.819C191.767 113.77 191.326 113.624 190.666 111.503Z" fill="#73B9FF"/>
<path d="M106.066 70.9924C106.213 70.8461 106.433 70.6999 106.58 70.4805C106.874 70.188 107.167 69.9687 107.387 69.603C108.047 68.5062 109.368 68.2137 110.249 69.1643C110.762 69.7493 111.276 69.8955 111.936 69.8224C113.55 69.7493 115.165 69.6762 116.852 69.603C117.659 69.603 118.54 69.3837 119.274 69.8224C119.2 70.9193 118.54 71.5774 117.366 71.943C115.605 72.528 113.844 72.528 112.083 72.0893C110.616 71.7236 109.075 71.5774 107.534 71.6505C107.02 71.6505 106.433 71.6505 106.066 70.9924Z" fill="#73B9FF"/>
<path d="M78.625 71.1386C79.5789 69.7493 80.7528 69.4568 81.9268 69.0911C83.2475 68.6524 84.5682 68.433 85.6689 69.603C85.8156 69.7493 85.9623 69.7493 86.1091 69.8224C87.063 70.4805 87.7967 70.3343 88.457 69.3836C88.9707 68.5793 89.7778 68.9449 90.4381 68.7987C90.5115 69.1643 90.5849 69.3836 90.7316 69.6761C91.3186 69.6761 91.8322 69.6761 92.4926 69.6761C92.1991 70.6999 91.7588 71.358 90.805 71.4311C89.9979 71.5042 89.1908 71.5774 88.457 71.6505C87.6499 71.7236 86.8428 71.6505 86.0357 71.7967C84.3481 72.1624 82.8073 71.8699 81.1931 71.5042C80.8262 71.4311 80.386 71.4311 80.0191 71.4311C79.5789 71.358 79.212 71.2118 78.625 71.1386Z" fill="#73B9FF"/>
<path d="M110.836 64.2649C112.303 63.6799 113.844 62.9487 115.385 62.4368C116.266 62.1443 117.146 62.4368 117.953 62.8756C118.614 63.2412 119.201 63.6068 119.787 64.0456C120.008 64.1918 120.228 64.4843 120.154 64.7037C120.154 64.9231 119.787 65.1424 119.567 65.2155C118.76 65.3618 117.88 65.4349 117.073 65.5812C115.972 65.8005 114.871 66.093 113.844 66.3855C113.477 66.4587 113.037 66.5318 112.67 66.5318C111.496 66.4587 110.909 65.8005 110.836 64.2649Z" fill="#73B9FF"/>
<path d="M82.0732 179.728C82.807 178.485 83.9809 179.216 84.7881 178.777C85.4484 177.754 83.9076 177.461 84.2011 176.51C84.7881 176.584 85.4484 176.657 86.0354 176.657C86.4023 176.657 86.7691 176.657 87.2094 176.657C87.5763 176.657 88.0165 176.584 88.2366 176.803C88.8236 177.388 89.5573 177.461 90.2911 177.827C90.7313 178.046 91.2449 178.339 91.6118 178.631C91.7585 178.777 91.8319 179.216 91.7585 179.509C91.6852 179.874 91.3183 180.02 91.0248 179.801C90.4378 179.435 89.9242 179.582 89.3372 179.874C89.1171 180.02 88.8236 179.947 88.5301 180.02C88.2366 180.02 87.8697 179.947 87.723 180.167C86.8425 180.971 85.8153 180.605 84.8614 180.459C84.4212 180.386 83.9076 180.313 83.4673 180.24C82.9537 180.02 82.5135 179.874 82.0732 179.728Z" fill="#73B9FF"/>
<path d="M98.0684 72.8205C97.7749 73.2592 97.1879 73.6979 97.1879 74.1367C97.1146 74.7948 96.9678 75.3798 96.5276 75.7454C95.427 76.6229 94.1796 77.281 92.7855 77.1348C92.1252 77.0617 91.4648 76.4035 90.8044 75.9648C90.6577 75.8185 90.5843 75.3067 90.6577 75.0142C90.8044 74.7217 91.0979 74.4292 91.3914 74.3561C91.7583 74.2098 92.1252 74.3561 92.5654 74.3561C92.7122 73.9904 92.7121 73.6248 92.8589 73.4054C93.1524 73.0398 93.4459 72.6011 93.8128 72.528C95.1335 72.4548 96.4542 72.4548 97.7015 72.4548C97.9217 72.6742 97.995 72.7473 98.0684 72.8205Z" fill="#73B9FF"/>
<path d="M98.3617 75.6723C98.1416 74.8679 98.5084 74.2829 98.9487 73.8442C99.609 73.2592 100.416 72.8205 101.15 72.3086C101.297 72.2355 101.517 72.2355 101.737 72.2355C102.911 72.3817 104.011 72.528 105.185 72.6742C105.406 72.6742 105.552 72.7473 105.699 72.8205C105.699 72.9667 105.772 73.113 105.699 73.113C104.378 74.0636 103.204 75.2336 101.443 75.0142C101.003 74.9411 100.416 75.2336 99.9759 75.3798C99.4623 75.6723 98.9487 75.8917 98.3617 75.6723Z" fill="#73B9FF"/>
<path d="M217.153 134.025C217.52 133.806 217.887 133.514 218.327 133.221C218.107 132.929 217.887 132.636 217.74 132.344C217.08 131.1 217.373 130.515 218.841 130.369C219.134 131.32 218.914 132.124 218.547 133.002C219.281 133.952 219.208 135.195 219.355 136.292C219.428 137.243 218.768 137.974 217.96 138.047C217.52 138.12 217.227 137.828 217.227 137.389C217.153 136.292 217.153 135.195 217.153 134.025Z" fill="#73B9FF"/>
<path d="M83.6142 67.848C83.2473 68.1405 83.0272 68.3599 82.8071 68.3599C82.2201 68.5062 81.6331 68.6524 81.0461 68.7987C79.8721 69.018 78.6982 69.2374 77.5976 69.6761C76.5703 70.0418 75.3964 69.9686 74.2957 69.5299C74.149 68.9449 74.5892 68.8718 74.8827 68.7255C76.2035 67.9943 77.6709 67.7749 79.1384 67.6287C80.3124 67.5555 81.4864 67.1899 82.6603 67.5555C82.9538 67.6287 83.1739 67.7018 83.6142 67.848Z" fill="#73B9FF"/>
<path d="M100.269 68.5061C100.783 68.5061 101.296 68.5061 101.81 68.5792C102.25 68.6524 102.397 69.2374 102.03 69.4567C100.93 70.188 99.9758 71.2117 98.5083 71.0655C97.9213 70.9923 97.4077 70.9192 97.1142 70.2611C96.9674 69.8223 97.4811 69.018 98.0681 68.7986C98.8018 68.5792 99.5355 68.5061 100.269 68.3599C100.196 68.5061 100.269 68.5061 100.269 68.5061Z" fill="#73B9FF"/>
<path d="M87.3564 81.0835C88.457 80.3523 89.4843 79.7673 90.6583 79.5479C91.3186 79.4016 92.0524 79.9866 92.566 80.9372C91.5387 82.0341 89.4843 82.1072 87.3564 81.0835Z" fill="#73B9FF"/>
<path d="M102.324 66.8243C101.664 66.6049 100.93 66.4587 100.196 66.0931C99.9761 65.9468 99.6826 65.5081 99.6826 65.2156C99.756 64.9231 100.123 64.7037 100.416 64.5575C100.636 64.4843 101.003 64.4843 101.223 64.5575C101.957 64.7768 102.691 65.0693 103.425 65.3618C103.645 65.435 103.938 65.7275 103.938 65.9468C103.938 66.1662 103.645 66.4587 103.425 66.5318C103.205 66.6781 102.838 66.6781 102.324 66.8243Z" fill="#73B9FF"/>
<path d="M101.443 71.0655C102.324 70.1149 103.351 70.4074 104.305 70.4074C104.598 71.6505 104.232 72.2355 103.204 72.1624C102.544 72.0892 101.884 71.8699 101.443 71.0655Z" fill="#73B9FF"/>
<path d="M105.406 65.8737C106.507 65.5812 107.461 65.7274 108.341 66.2393C108.488 66.3124 108.708 66.6781 108.635 66.8243C108.561 67.0437 108.341 67.3362 108.121 67.4093C107.314 67.7018 105.993 66.9705 105.406 65.8737Z" fill="#73B9FF"/>
<path d="M92.0515 66.7512C91.0976 67.7018 89.6302 67.848 88.3828 67.1899C89.0432 66.1662 90.8775 65.9468 92.0515 66.7512Z" fill="#73B9FF"/>
<path d="M107.094 68.7986C105.553 69.7492 104.379 69.603 103.792 68.433C104.819 67.6286 105.993 67.7017 107.094 68.7986Z" fill="#73B9FF"/>
<path d="M254.427 146.749C254.28 146.237 254.427 145.798 254.941 145.652C255.748 145.36 256.628 145.067 257.509 144.775C256.775 146.603 256.115 147.334 254.427 146.749Z" fill="#73B9FF"/>
<path d="M95.2071 68.433C95.6474 68.5793 96.0142 68.6524 96.161 68.8718C96.3811 69.0912 96.5278 69.5299 96.5278 69.8224C96.5278 70.3343 96.0876 70.3343 95.7207 70.3343C95.5006 70.3343 95.2805 70.188 95.0604 70.1149C94.6201 69.9687 94.1799 69.603 94.3266 69.0912C94.4 68.7987 94.9136 68.6524 95.2071 68.433Z" fill="#73B9FF"/>
<path d="M96.1612 179.947C95.5009 180.459 94.9872 180.752 94.2535 180.459C93.8866 180.313 93.7399 180.02 93.8133 179.655C93.8866 179.435 94.1801 179.143 94.4003 179.143C94.9872 179.143 95.721 178.85 96.1612 179.947Z" fill="#73B9FF"/>
<path d="M240.854 144.921C242.174 145.14 243.348 145.36 244.669 145.579C243.715 146.091 242.027 146.018 241 145.506C241 145.506 241 145.213 240.854 144.921Z" fill="#73B9FF"/>
<path d="M78.1113 168.174C77.084 167.151 77.084 166.931 77.671 166.054C78.258 166.2 78.3314 166.712 78.4048 167.224C78.4781 167.516 78.5515 167.955 78.1113 168.174Z" fill="#73B9FF"/>
<path d="M209.009 137.535C208.716 137.17 208.496 136.877 208.275 136.658C208.496 136.438 208.716 136.146 208.936 136.073C209.083 136 209.449 136.365 209.449 136.512C209.449 136.804 209.229 137.097 209.009 137.535Z" fill="#73B9FF"/>
</g>
</g>
<path d="M117.008 236.946L101.059 298.55L54.3254 478.619L165.697 418.299C165.697 418.299 165.396 348.403 165.522 317.981C165.663 281.993 166.617 241.208 170.112 234.813C176.458 222.999 189.938 209.14 190.935 198.131L117.008 236.946Z" fill="#ECBEA8"/>
<path d="M48.8039 477.78C48.8039 477.78 96.704 287.2 104.152 277.354L168.095 282.068C168.095 282.068 183.801 389.766 179.208 419.85C174.574 449.876 59.3835 492.126 59.3835 492.126L48.8039 477.78Z" fill="#00355F"/>
<path d="M193.086 138.878C189.612 141.114 185.449 141.977 181.376 141.19L146.194 134.846C138.112 133.492 129.809 135.377 123.086 140.046L104.168 153.184C101.253 155.208 99.3239 158.399 98.9901 161.982L97.5423 174.627L92.7382 178.757C88.8762 181.703 86.779 185.541 88.1638 189.693C89.5073 193.787 93.7857 196.9 97.9122 196.239C95.121 198.442 94.293 202.456 95.7952 205.381C99.6951 212.902 106.876 211.179 106.876 211.179C103.777 213.066 102.585 215.921 103.418 218.518C103.911 220.116 105.147 222.785 108.877 223.457C107.865 224.16 107.363 225.214 107.026 226.506C106.442 228.587 108.862 232.198 110.45 234.358C110.45 234.358 114.275 241.136 121.094 239.4L158.422 228.645C158.422 228.645 176.326 223.443 193.844 201.049C195.06 199.499 196.483 198.247 198.13 197.191L385.531 69.0828L307.382 12.4188L193.086 138.878Z" fill="#DBA691"/>
<path d="M213.041 116.82L313.587 -1.50244C313.587 -1.50244 451.358 -71.9981 493 -10.0001C493 -10.0001 262.544 163.218 247.602 163.542L231.672 132.982L213.041 116.82Z" fill="#007AF3"/>
<path d="M191.55 125.747C189.461 125.787 187.946 126.398 186.774 127.123C186.06 127.619 185.489 128.193 185 128.885C184.545 128.231 184.031 127.618 183.458 127.046C182.127 125.765 180.339 124.714 177.879 124.218C173.503 123.377 171.029 126.418 169.736 129.255C169.042 127.621 166.944 123.964 162.229 123.269C156.144 122.38 153.034 125.775 150.854 129.493C150.854 129.493 150.682 121.499 142.73 121.731L135.14 144.197C135.14 144.197 131.64 153.506 136.323 157.837C141.006 162.169 146.868 160.832 148.058 160.006C148.058 160.006 146.574 169.678 156.104 171.085C162.39 172.01 164.825 166.881 165.813 162.843C167.277 164.825 169.483 166.732 172.763 167.011C179.585 167.565 182.216 162.211 183.649 158.306C184.452 156.161 185.627 148.202 186.411 141.838C187.47 142.601 188.726 143.14 190.114 143.234C193.394 143.514 196.511 141.526 197.656 138.349L198.701 135.155C198.876 132.741 198.914 130.51 198 128.94C196.701 127.196 194.363 125.734 191.55 125.747Z" fill="#ECBEA8"/>
<path d="M144.402 131.504C142.236 138.035 136.807 144.186 132.109 148.595L101.647 171.776C102.969 167.331 105.849 157.13 108.077 148.528C110.173 140.371 113.062 135.896 114.493 134.02C115.023 133.387 115.696 132.832 116.433 132.497C127.988 127.295 133.862 122.421 136.031 120.21C136.978 119.288 138.356 118.86 139.63 119.298C142.724 120.324 147.007 123.699 144.402 131.504Z" fill="#ECBEA8"/>
<path d="M182.616 213.961C182.556 214.002 182.556 214.002 182.538 214.103C182.085 214.594 170.626 225.902 158.592 229.144C146.677 232.304 136.411 235.553 136.31 235.534C136.031 235.64 135.646 235.467 135.6 235.146C135.494 234.867 135.668 234.482 135.988 234.435C136.048 234.394 146.414 231.164 158.329 228.004C170.084 224.868 181.621 213.417 181.698 213.275C181.895 213.05 182.257 213.063 182.482 213.26C182.706 213.457 182.711 213.718 182.616 213.961Z" fill="#DB9B9B"/>
<path d="M96.5342 196.667L114.309 191.026" stroke="#A85764" stroke-width="1.5" stroke-miterlimit="10" stroke-linecap="round" stroke-linejoin="round"/>
<path d="M106.986 211.719L126.625 205.841" stroke="#A85764" stroke-width="1.5" stroke-miterlimit="10" stroke-linecap="round" stroke-linejoin="round"/>
<path d="M108.896 224.502L131.474 219.934" stroke="#A85764" stroke-width="1.5" stroke-miterlimit="10" stroke-linecap="round" stroke-linejoin="round"/>
<path d="M213.04 116.82C213.04 116.82 233.497 134.977 247.846 164.783C247.846 164.783 260.577 159.116 263.254 157.257C263.254 157.257 249.119 119.631 224.312 103.084C224.271 103.024 218.832 108.653 213.04 116.82Z" fill="#00355F"/>
<path d="M99.4579 265.006C99.4579 265.006 146.766 256.051 177.756 272.361C177.756 272.361 180.481 284.666 180.035 292.912C180.035 292.912 124.187 284.87 94.2091 291.225C94.3099 291.244 93.1846 276.417 99.4579 265.006Z" fill="#007AF3"/>
<path d="M101.13 172.047C101.13 172.047 129.523 153.124 137.031 143.237C144.538 133.35 144.991 123.335 144.991 123.335" stroke="#A85764" stroke-width="1.5" stroke-miterlimit="10" stroke-linecap="round" stroke-linejoin="round"/>
<path d="M151.585 134.1C151.585 134.1 153.726 161.184 144.538 161.921C135.349 162.658 132.831 153.825 134.219 147.57" stroke="#A85764" stroke-width="1.5" stroke-miterlimit="10" stroke-linecap="round" stroke-linejoin="round"/>
<path d="M169.473 134.464C169.473 134.464 169.475 154.657 165.35 165.987C161.243 177.216 145.836 173.188 148.081 160.166" stroke="#A85764" stroke-width="1.5" stroke-miterlimit="10" stroke-linecap="round" stroke-linejoin="round"/>
<path d="M184.38 134.342C184.38 134.342 189.121 156.534 180.154 164.701C171.229 172.927 166.144 163.319 166.144 163.319" stroke="#A85764" stroke-width="1.5" stroke-miterlimit="10" stroke-linecap="round" stroke-linejoin="round"/>
<path d="M198.614 134.775C198.614 134.775 195.492 149.2 185.375 141.235" stroke="#A85764" stroke-width="1.5" stroke-miterlimit="10" stroke-linecap="round" stroke-linejoin="round"/>
</g>
<defs>
<clipPath id="clip0_262_1872">
<rect width="512" height="268" fill="white" transform="translate(-15 59)"/>
</clipPath>
</defs>
</svg>
