<svg width="84" height="90" viewBox="0 0 84 90" fill="none" xmlns="http://www.w3.org/2000/svg">
<path d="M31.3558 64.2164C22.221 58.4482 16.8923 57.7753 15.3699 58.1598V82.9629L29.643 88.1542C31.9267 89.5386 35.5426 89.1156 37.0651 88.731L59.3312 85.5586C62.5284 85.3278 66.3726 82.3861 67.8951 80.944L82.4537 67.9657C83.5955 66.5813 82.9295 64.8893 82.4537 64.2164C80.8551 62.1398 78.933 63.3512 78.1717 64.2164L61.044 75.1759H57.0475C57.7326 67.7926 52.0043 65.7546 49.0545 65.6584L31.3558 64.2164Z" fill="#003262"/>
<path d="M61.044 75.1759H57.0475C57.7326 67.7926 52.0043 65.7546 49.0545 65.6584L31.3558 64.2164C22.221 58.4482 16.8923 57.7753 15.3699 58.1598V82.9629L29.643 88.1542C31.9267 89.5386 35.5426 89.1156 37.0651 88.731L59.3312 85.5586C62.5284 85.3278 66.3726 82.3861 67.8951 80.944L82.4537 67.9657C83.5955 66.5813 82.9295 64.8893 82.4537 64.2164C80.8551 62.1398 78.933 63.3512 78.1717 64.2164L61.044 75.1759ZM61.044 75.1759H37.0651C31.3558 75.1759 31.3558 73.5894 31.3558 71.715" stroke="#E6F2FE" stroke-linecap="round"/>
<path d="M38.1274 3.20784C36.4016 10.6115 32.2231 14.0095 29.2665 15.2082C28.3253 15.5898 27.5786 16.4662 27.6449 17.4797C29.0913 39.6155 44.1748 52.423 52.372 56.5015C52.8362 56.7324 53.378 56.7534 53.8624 56.5688C71.9457 49.6766 78.294 28.7328 79.4318 17.4679C79.5341 16.4556 78.8041 15.5857 77.8464 15.2424C72.5296 13.336 70.0789 7.40054 69.2583 3.33769C69.0548 2.33005 68.2007 1.54883 67.1727 1.54883H40.1496C39.1741 1.54883 38.3489 2.25774 38.1274 3.20784Z" fill="#007AF3" stroke="#007AF3" stroke-width="2" stroke-linecap="round"/>
<rect x="0.322266" y="50.5477" width="15.9881" height="38.5595" rx="5" fill="#007AF3"/>
<path d="M46.2468 27.2697L51.461 32.4074C52.3077 33.2417 53.7064 33.0912 54.3562 32.0958L62.7545 19.2319" stroke="#E6F2FE" stroke-width="3" stroke-linecap="round"/>
<circle cx="8.31628" cy="83.9346" r="2.35119" fill="#003262"/>
</svg>
