<svg width="26" height="21" viewBox="0 0 26 21" fill="none" xmlns="http://www.w3.org/2000/svg">
<path d="M19.6667 12.8333L22.0001 10.5M22.0001 10.5L24.3334 8.16663M22.0001 10.5L19.6667 8.16663M22.0001 10.5L24.3334 12.8333" stroke="white" stroke-width="1.5" stroke-linecap="round" stroke-linejoin="round"/>
<path d="M1 12.6665V8.33349C1 7.71465 1.24583 7.12116 1.68342 6.68357C2.12101 6.24599 2.7145 6.00015 3.33334 6.00015H6.71668C6.94479 6.0001 7.16788 5.93317 7.35835 5.80765L14.3584 1.19231C14.5342 1.07648 14.7382 1.01042 14.9486 1.00114C15.159 0.991848 15.368 1.03968 15.5534 1.13956C15.7388 1.23943 15.8937 1.38763 16.0016 1.56843C16.1096 1.74923 16.1667 1.95589 16.1667 2.16648V18.8335C16.1667 19.0441 16.1096 19.2508 16.0016 19.4316C15.8937 19.6124 15.7388 19.7606 15.5534 19.8604C15.368 19.9603 15.159 20.0082 14.9486 19.9989C14.7382 19.9896 14.5342 19.9235 14.3584 19.8077L7.35835 15.1923C7.16788 15.0668 6.94479 14.9999 6.71668 14.9998H3.33334C2.7145 14.9998 2.12101 14.754 1.68342 14.3164C1.24583 13.8788 1 13.2853 1 12.6665Z" stroke="white" stroke-width="1.5"/>
</svg>
