<svg width="9" height="5" viewBox="0 0 9 5" fill="none" xmlns="http://www.w3.org/2000/svg">
<path d="M4.5 4.14548L0.575113 0.103808C0.543484 0.0705326 0.505932 0.0442255 0.464632 0.0264091C0.423331 0.00859275 0.379102 -0.000379229 0.334503 1.286e-05C0.289905 0.000404949 0.245822 0.0101531 0.204807 0.0286932C0.163792 0.0472332 0.126659 0.0741968 0.0955558 0.108024C0.0644529 0.141851 0.039998 0.18187 0.0236064 0.225765C0.00721482 0.26966 -0.000788065 0.31656 6.09177e-05 0.36375C0.0009099 0.41094 0.0105939 0.457482 0.0285525 0.500685C0.046511 0.543888 0.0723876 0.582892 0.104685 0.615442L4.26479 4.89889C4.32776 4.96372 4.41214 5 4.5 5C4.58786 5 4.67224 4.96372 4.73521 4.89889L8.89532 0.615442C8.92761 0.582892 8.95349 0.543888 8.97145 0.500685C8.98941 0.457482 8.99909 0.410939 8.99994 0.36375C9.00079 0.31656 8.99279 0.26966 8.97639 0.225765C8.96 0.18187 8.93555 0.141851 8.90444 0.108024C8.87334 0.0741964 8.83621 0.0472329 8.79519 0.0286928C8.75418 0.0101528 8.7101 0.000404581 8.6655 1.24958e-05C8.6209 -0.000379589 8.57667 0.00859239 8.53537 0.0264088C8.49407 0.0442252 8.45652 0.0705323 8.42489 0.103808L4.5 4.14548Z" fill="#003262"/>
</svg>
