<svg width="24" height="15" viewBox="0 0 24 15" fill="none" xmlns="http://www.w3.org/2000/svg">
<path d="M23.137 1.26273C22.8089 0.934653 22.3638 0.750352 21.8998 0.750352C21.4358 0.750352 20.9907 0.934653 20.6625 1.26273L12 9.92523L3.33754 1.26273C3.00748 0.94395 2.56543 0.767559 2.10658 0.771546C1.64774 0.775534 1.20882 0.959579 0.884353 1.28404C0.559888 1.60851 0.375846 2.04743 0.371858 2.50627C0.367871 2.96512 0.544261 3.40717 0.863038 3.73723L10.7628 13.637C11.091 13.9651 11.536 14.1494 12 14.1494C12.4641 14.1494 12.9091 13.9651 13.2373 13.637L23.137 3.73723C23.4651 3.40905 23.6494 2.96402 23.6494 2.49998C23.6494 2.03594 23.4651 1.5909 23.137 1.26273Z" fill="#00355F"/>
</svg>
