<svg width="27" height="26" viewBox="0 0 27 26" fill="none" xmlns="http://www.w3.org/2000/svg">
<g id="basil:instagram-solid">
<path id="Vector" d="M13.5 9.47919C12.5303 9.47919 11.6003 9.85013 10.9146 10.5104C10.229 11.1707 9.84375 12.0662 9.84375 13C9.84375 13.9338 10.229 14.8293 10.9146 15.4896C11.6003 16.1499 12.5303 16.5209 13.5 16.5209C14.4697 16.5209 15.3997 16.1499 16.0854 15.4896C16.771 14.8293 17.1562 13.9338 17.1562 13C17.1562 12.0662 16.771 11.1707 16.0854 10.5104C15.3997 9.85013 14.4697 9.47919 13.5 9.47919Z" fill="white"/>
<path id="Vector_2" fill-rule="evenodd" clip-rule="evenodd" d="M7.61629 3.33881C11.5268 2.9214 15.4733 2.9214 19.3838 3.33881C21.5202 3.56848 23.2425 5.18806 23.4934 7.2529C23.9572 11.0713 23.9572 14.9287 23.4934 18.7471C23.2425 20.8119 21.5202 22.4315 19.3849 22.6622C15.474 23.0798 11.5272 23.0798 7.61629 22.6622C5.47992 22.4315 3.75754 20.8119 3.50667 18.7481C3.04286 14.9294 3.04286 11.0716 3.50667 7.2529C3.75754 5.18806 5.47992 3.56848 7.61629 3.33881ZM19.125 6.49998C18.8267 6.49998 18.5405 6.61412 18.3295 6.81728C18.1186 7.02044 18 7.29599 18 7.58331C18 7.87063 18.1186 8.14618 18.3295 8.34934C18.5405 8.55251 18.8267 8.66665 19.125 8.66665C19.4234 8.66665 19.7096 8.55251 19.9205 8.34934C20.1315 8.14618 20.25 7.87063 20.25 7.58331C20.25 7.29599 20.1315 7.02044 19.9205 6.81728C19.7096 6.61412 19.4234 6.49998 19.125 6.49998ZM8.15629 13C8.15629 11.6352 8.71929 10.3264 9.72144 9.36133C10.7236 8.3963 12.0828 7.85415 13.5 7.85415C14.9173 7.85415 16.2765 8.3963 17.2786 9.36133C18.2808 10.3264 18.8438 11.6352 18.8438 13C18.8438 14.3647 18.2808 15.6736 17.2786 16.6386C16.2765 17.6037 14.9173 18.1458 13.5 18.1458C12.0828 18.1458 10.7236 17.6037 9.72144 16.6386C8.71929 15.6736 8.15629 14.3647 8.15629 13Z" fill="white"/>
</g>
</svg>
