<svg width="28" height="28" viewBox="0 0 28 28" fill="none" xmlns="http://www.w3.org/2000/svg">
<g id="mingcute:youtube-fill" clip-path="url(#clip0_177_697)">
<g id="Group">
<path id="Vector" fill-rule="evenodd" clip-rule="evenodd" d="M13.8715 5.02423C14.8308 5.02423 15.8147 5.04891 16.7684 5.08931L17.8949 5.14316L18.9731 5.20711L19.9829 5.27555L20.9051 5.34736C21.906 5.42397 22.8478 5.85107 23.5648 6.55353C24.2818 7.25599 24.7282 8.1888 24.8253 9.18788L24.8702 9.66471L24.9543 10.6857C25.0329 11.7437 25.0912 12.8971 25.0912 14C25.0912 15.1029 25.0329 16.2563 24.9543 17.3143L24.8702 18.3353C24.8556 18.4991 24.841 18.6573 24.8253 18.8122C24.7281 19.8114 24.2816 20.7444 23.5644 21.4469C22.8471 22.1493 21.9051 22.5763 20.904 22.6527L19.984 22.7234L18.9742 22.7929L17.8949 22.8569L16.7684 22.9107C15.8033 22.9527 14.8375 22.9744 13.8715 22.9758C12.9055 22.9744 11.9396 22.9527 10.9745 22.9107L9.84807 22.8569L8.76986 22.7929L7.76008 22.7234L6.83782 22.6527C5.83696 22.5761 4.89518 22.149 4.17815 21.4465C3.46112 20.7441 3.01478 19.8112 2.91764 18.8122L2.87276 18.3353L2.78861 17.3143C2.70283 16.2116 2.65717 15.1061 2.65173 14C2.65173 12.8971 2.71008 11.7437 2.78861 10.6857L2.87276 9.66471C2.88735 9.50091 2.90193 9.34271 2.91764 9.18788C3.01474 8.18898 3.46092 7.2563 4.17772 6.55387C4.89452 5.85143 5.83604 5.42422 6.8367 5.34736L7.75784 5.27555L8.76761 5.20711L9.84695 5.14316L10.9734 5.08931C11.9389 5.04738 12.9051 5.02568 13.8715 5.02423ZM11.6275 11.2792V16.7208C11.6275 17.2392 12.1885 17.5623 12.6373 17.3042L17.3496 14.5834C17.4521 14.5244 17.5373 14.4394 17.5965 14.337C17.6558 14.2346 17.6869 14.1183 17.6869 14C17.6869 13.8817 17.6558 13.7655 17.5965 13.6631C17.5373 13.5606 17.4521 13.4756 17.3496 13.4166L12.6373 10.6969C12.5349 10.6378 12.4188 10.6067 12.3006 10.6067C12.1824 10.6068 12.0663 10.6379 11.9639 10.697C11.8616 10.7562 11.7766 10.8412 11.7176 10.9436C11.6585 11.046 11.6274 11.1622 11.6275 11.2804V11.2792Z" fill="white"/>
</g>
</g>
<defs>
<clipPath id="clip0_177_697">
<rect width="26.9274" height="26.9274" fill="white" transform="translate(0.407837 0.536316)"/>
</clipPath>
</defs>
</svg>
