<svg width="27" height="28" viewBox="0 0 27 28" fill="none" xmlns="http://www.w3.org/2000/svg">
<g id="ri:linkedin-fill">
<path id="Vector" d="M7.85911 6.14619C7.85881 6.74132 7.62211 7.31196 7.20108 7.73258C6.78005 8.15319 6.20917 8.38932 5.61404 8.38902C5.01891 8.38872 4.44827 8.15202 4.02766 7.73099C3.60705 7.30996 3.37092 6.73908 3.37122 6.14395C3.37151 5.54882 3.60821 4.97818 4.02925 4.55757C4.45028 4.13696 5.02115 3.90083 5.61629 3.90112C6.21142 3.90142 6.78206 4.13812 7.20267 4.55915C7.62328 4.98019 7.85941 5.55106 7.85911 6.14619ZM7.92643 10.0507H3.43853V24.0978H7.92643V10.0507ZM15.0173 10.0507H10.5518V24.0978H14.9724V16.7264C14.9724 12.62 20.3242 12.2385 20.3242 16.7264V24.0978H24.756V15.2005C24.756 8.27794 16.8349 8.536 14.9724 11.9356L15.0173 10.0507Z" fill="#00355F"/>
</g>
</svg>
