<svg width="29" height="28" viewBox="0 0 29 28" fill="none" xmlns="http://www.w3.org/2000/svg">
<g id="basil:instagram-solid">
<rect width="29" height="28" fill=""/>
<path id="Vector" d="M14.4993 10.2084C13.4578 10.2084 12.459 10.6079 11.7225 11.3189C10.986 12.03 10.5723 12.9944 10.5723 14C10.5723 15.0057 10.986 15.9701 11.7225 16.6812C12.459 17.3922 13.4578 17.7917 14.4993 17.7917C15.5409 17.7917 16.5397 17.3922 17.2762 16.6812C18.0127 15.9701 18.4264 15.0057 18.4264 14C18.4264 12.9944 18.0127 12.03 17.2762 11.3189C16.5397 10.6079 15.5409 10.2084 14.4993 10.2084Z" fill="#B36700"/>
<path id="Vector_2" fill-rule="evenodd" clip-rule="evenodd" d="M8.18024 3.59567C12.3804 3.14615 16.6192 3.14615 20.8194 3.59567C23.114 3.843 24.964 5.58717 25.2334 7.81083C25.7315 11.9229 25.7315 16.0771 25.2334 20.1892C24.964 22.4128 23.114 24.157 20.8206 24.4055C16.62 24.8551 12.3808 24.8551 8.18024 24.4055C5.88562 24.157 4.03566 22.4128 3.7662 20.1903C3.26804 16.0778 3.26804 11.9233 3.7662 7.81083C4.03566 5.58717 5.88562 3.843 8.18024 3.59567ZM20.5415 7C20.221 7 19.9137 7.12292 19.6871 7.34171C19.4605 7.5605 19.3332 7.85725 19.3332 8.16667C19.3332 8.47609 19.4605 8.77283 19.6871 8.99162C19.9137 9.21042 20.221 9.33333 20.5415 9.33333C20.862 9.33333 21.1693 9.21042 21.3959 8.99162C21.6225 8.77283 21.7498 8.47609 21.7498 8.16667C21.7498 7.85725 21.6225 7.5605 21.3959 7.34171C21.1693 7.12292 20.862 7 20.5415 7ZM8.76024 14C8.76024 12.5303 9.36495 11.1207 10.4413 10.0814C11.5177 9.04219 12.9776 8.45833 14.4998 8.45833C16.0221 8.45833 17.4819 9.04219 18.5583 10.0814C19.6347 11.1207 20.2394 12.5303 20.2394 14C20.2394 15.4697 19.6347 16.8793 18.5583 17.9185C17.4819 18.9578 16.0221 19.5417 14.4998 19.5417C12.9776 19.5417 11.5177 18.9578 10.4413 17.9185C9.36495 16.8793 8.76024 15.4697 8.76024 14Z" fill="#B36700"/>
</g>
</svg>
