<svg width="85" height="89" viewBox="0 0 85 89" fill="none" xmlns="http://www.w3.org/2000/svg">
<path d="M26.8674 4.31103H26.8676L32.4449 4.31103C33.2978 4.31103 33.9494 4.7147 34.4244 5.40009C34.9174 6.11149 35.1999 7.11327 35.1999 8.15504V13.6558L35.1991 13.6685C35.1986 13.6765 35.1979 13.6888 35.1973 13.7026C35.1951 13.7483 35.191 13.8544 35.212 13.9833C35.3192 14.712 35.7518 15.4461 36.3225 15.9907C36.9106 16.5519 37.7503 17.0114 38.7456 17.0114C39.7821 17.0114 40.5262 16.3771 40.9915 15.9804C41.0155 15.9599 41.0387 15.9401 41.0612 15.921L41.0614 15.9209L41.0662 15.9168L41.0676 15.9156C41.7175 15.3627 42.241 14.9339 43.2634 14.9339C44.1993 14.9339 44.9627 15.3493 45.5277 16.1586C46.114 16.9982 46.5015 18.2957 46.5015 20.004C46.5015 21.8142 45.9491 23.0249 45.2415 23.7748C44.5274 24.5316 43.5949 24.8861 42.7039 24.8861C42.1442 24.8861 41.8255 24.7838 41.617 24.6769C41.3937 24.5625 41.2266 24.4107 40.9636 24.159L40.9636 24.159L40.9627 24.1582C40.9607 24.1563 40.9587 24.1543 40.9567 24.1524C40.9566 24.1523 40.9565 24.1522 40.9563 24.1521L40.9561 24.1519L40.9557 24.1515C40.9415 24.1379 40.9268 24.1237 40.9115 24.1089C40.5419 23.7532 39.8397 23.0771 38.7456 23.0771C37.75 23.0771 36.91 23.5372 36.3218 24.0988C35.7513 24.6435 35.3182 25.3781 35.2118 26.1077C35.191 26.2362 35.1951 26.3418 35.1973 26.3874C35.1979 26.4012 35.1986 26.4135 35.1991 26.4215L35.1999 26.4342V33.5451C35.1999 34.5589 34.9433 35.51 34.4757 36.1771C34.0338 36.8074 33.3909 37.2146 32.4449 37.2146H27.5837C27.7973 36.9309 28.0356 36.5709 28.2403 36.1187C28.5619 35.408 28.783 34.5136 28.783 33.3478C28.783 31.6207 28.1312 29.868 26.7397 28.5503C25.3439 27.2286 23.2843 26.4188 20.5981 26.4188C18.2721 26.4188 16.2347 27.0641 14.7588 28.2821C13.2665 29.5136 12.4145 31.2803 12.4145 33.3478C12.4145 34.5152 12.6359 35.4106 12.9582 36.1219C13.1623 36.5724 13.3999 36.9314 13.6133 37.2146H5.68986C4.80946 37.2146 3.85281 36.759 3.09478 35.9766C2.33847 35.1959 1.88245 34.1941 1.88245 33.2522L1.88245 27.0576L1.88245 13.4968L1.88245 7.86367C1.88245 5.85443 3.83922 4.31103 5.68986 4.31103L14.3285 4.31103H14.3513L14.3742 4.30999L14.4176 4.308L26.8674 4.31103ZM26.8046 37.1983C26.8047 37.1982 26.8064 37.1987 26.8094 37.1997C26.8061 37.1989 26.8046 37.1983 26.8046 37.1983Z" fill="#003262" stroke="#003262" stroke-width="2"/>
<path d="M1.239 57.4375L1.239 63.0148L1.23596 75.4875L1.239 75.5539L1.239 84.1926C1.239 86.4656 3.10861 89 5.79164 89L11.4248 89L24.9856 89L31.1802 89C33.6841 89 36.1426 86.6182 36.1426 84.1926L36.1426 75.5624C36.1092 74.7883 35.7116 74.7883 35.5416 74.7883C35.3929 74.7883 35.2442 74.8999 34.9149 75.1711C34.2896 75.6881 33.3457 76.468 31.2758 76.468C27.7293 76.468 25.3467 73.5804 25.3467 69.2844C25.3467 64.3202 28.3242 62.0994 31.2758 62.0994C33.3424 62.0994 34.2866 62.8781 34.9118 63.3938L34.9149 63.3963C35.2457 63.6689 35.3944 63.7791 35.5416 63.7791C35.7101 63.7791 36.1077 63.7791 36.1426 62.9767L36.1426 57.4375C36.1426 54.8452 33.7964 53.6826 31.4731 53.6826L24.3497 53.6826C24.2951 53.6826 24.242 53.6924 24.1904 53.6826C23.2631 53.554 22.0051 52.4931 22.0051 51.1369C22.0051 50.4503 22.4285 50.0082 22.8018 49.6183L22.8018 49.6182L22.8023 49.6177C23.2999 49.098 23.814 48.561 23.814 47.1785C23.814 44.8687 21.9748 42.381 17.932 42.381C14.2444 42.381 11.8618 44.0451 11.8618 46.6191C11.8618 48.0261 12.5098 48.7904 13.0819 49.4628L13.086 49.4676C13.5261 49.9871 13.9393 50.4749 13.9393 51.1369C13.9393 52.4931 12.6828 53.5526 11.7556 53.6826C11.704 53.6924 11.6509 53.6826 11.5962 53.6826L6.083 53.6826C3.67617 53.6826 1.239 54.9738 1.239 57.4375Z" fill="#007AF3"/>
<path d="M58.9533 85.9968L58.9531 85.9968L53.3757 85.9968C52.5228 85.9968 51.8713 85.5931 51.3963 84.9077C50.9032 84.1963 50.6208 83.1945 50.6208 82.1528L50.6208 76.652L50.6216 76.6393C50.622 76.6313 50.6228 76.619 50.6234 76.6052C50.6255 76.5595 50.6297 76.4534 50.6087 76.3245C50.5015 75.5958 50.0689 74.8618 49.4981 74.3171C48.91 73.7559 48.0704 73.2964 47.0751 73.2964C46.0386 73.2964 45.2945 73.9308 44.8292 74.3275C44.8052 74.3479 44.7819 74.3677 44.7594 74.3868L44.7593 74.387L44.7545 74.391L44.7531 74.3922C44.1032 74.9451 43.5797 75.374 42.5573 75.374C41.6214 75.374 40.858 74.9585 40.2929 74.1492C39.7066 73.3096 39.3192 72.0121 39.3192 70.3038C39.3192 68.4936 39.8716 67.2829 40.5792 66.533C41.2932 65.7762 42.2258 65.4218 43.1167 65.4218C43.6765 65.4218 43.9952 65.524 44.2037 65.6309C44.4269 65.7453 44.594 65.8971 44.8571 66.1488L44.8571 66.1488L44.8579 66.1496C44.86 66.1516 44.862 66.1535 44.864 66.1554C44.8641 66.1555 44.8642 66.1556 44.8643 66.1557L44.8646 66.156L44.8649 66.1563C44.8791 66.1699 44.8939 66.1841 44.9092 66.1989C45.2787 66.5546 45.9809 67.2307 47.0751 67.2307C48.0707 67.2307 48.9107 66.7706 49.4989 66.209C50.0694 65.6643 50.5025 64.9297 50.6088 64.2001C50.6297 64.0717 50.6255 63.966 50.6234 63.9204C50.6228 63.9066 50.622 63.8943 50.6216 63.8863L50.6208 63.8736L50.6208 56.7627C50.6208 55.749 50.8774 54.7978 51.345 54.1307C51.7868 53.5004 52.4298 53.0932 53.3757 53.0932L58.2369 53.0932C58.0234 53.3769 57.7851 53.7369 57.5804 54.1891C57.2588 54.8998 57.0376 55.7942 57.0376 56.96C57.0376 58.6871 57.6894 60.4398 59.081 61.7575C60.4768 63.0792 62.5364 63.889 65.2226 63.889C67.5486 63.889 69.586 63.2438 71.0619 62.0257C72.5542 60.7942 73.4062 59.0275 73.4062 56.96C73.4062 55.7926 73.1848 54.8972 72.8625 54.1859C72.6583 53.7354 72.4208 53.3764 72.2074 53.0932L80.1308 53.0932C81.0112 53.0932 81.9679 53.5488 82.7259 54.3312C83.4822 55.1119 83.9382 56.1137 83.9382 57.0556L83.9382 63.2502L83.9382 76.811L83.9382 82.4441C83.9382 84.4534 81.9815 85.9968 80.1308 85.9968L71.4922 85.9968L71.4693 85.9968L71.4465 85.9978L71.4031 85.9998L58.9533 85.9968ZM59.0161 53.1095C59.016 53.1096 59.0143 53.1092 59.0113 53.1081C59.0146 53.1089 59.0161 53.1095 59.0161 53.1095Z" fill="#003262" stroke="#003262" stroke-width="2"/>
<path d="M83.7011 25.9849L83.7011 25.9852L83.7011 31.5625C83.7011 32.4154 83.2974 33.067 82.612 33.542C81.9006 34.035 80.8988 34.3174 79.8571 34.3174L74.3563 34.3174L74.3436 34.3167C74.3356 34.3162 74.3233 34.3155 74.3095 34.3148C74.2638 34.3127 74.1577 34.3085 74.0288 34.3295C73.3001 34.4367 72.566 34.8694 72.0214 35.4401C71.4602 36.0282 71.0007 36.8678 71.0007 37.8631C71.0007 38.8997 71.635 39.6437 72.0317 40.109C72.0522 40.133 72.072 40.1563 72.0911 40.1788L72.0912 40.179L72.0953 40.1837L72.0965 40.1852C72.6494 40.835 73.0782 41.3586 73.0782 42.3809C73.0782 43.3169 72.6628 44.0802 71.8535 44.6453C71.0139 45.2316 69.7164 45.619 68.0081 45.619C66.1979 45.619 64.9872 45.0666 64.2373 44.3591C63.4805 43.645 63.126 42.7124 63.126 41.8215C63.126 41.2617 63.2283 40.9431 63.3352 40.7346C63.4496 40.5113 63.6014 40.3442 63.8531 40.0812L63.8531 40.0811L63.8539 40.0803C63.8558 40.0783 63.8578 40.0763 63.8597 40.0742C63.8598 40.0741 63.8599 40.074 63.86 40.0739L63.8602 40.0737L63.8606 40.0733C63.8742 40.0591 63.8884 40.0443 63.9032 40.029C64.2589 39.6595 64.935 38.9573 64.935 37.8631C64.935 36.8676 64.4749 36.0275 63.9133 35.4394C63.3686 34.8688 62.634 34.4357 61.9044 34.3294C61.7759 34.3086 61.6703 34.3127 61.6246 34.3148C61.6109 34.3155 61.5986 34.3162 61.5906 34.3167L61.5779 34.3174L54.467 34.3174C53.4532 34.3174 52.5021 34.0609 51.835 33.5932C51.2047 33.1514 50.7975 32.5084 50.7975 31.5625L50.7975 26.7013C51.0812 26.9149 51.4412 27.1531 51.8934 27.3578C52.6041 27.6795 53.4985 27.9006 54.6643 27.9006C56.3914 27.9006 58.1441 27.2488 59.4618 25.8573C60.7835 24.4614 61.5933 22.4018 61.5933 19.7156C61.5933 17.3896 60.948 15.3522 59.73 13.8763C58.4985 12.384 56.7318 11.532 54.6643 11.532C53.4969 11.532 52.6015 11.7534 51.8902 12.0757C51.4397 12.2799 51.0807 12.5175 50.7975 12.7308L50.7975 4.80741C50.7975 3.92701 51.2531 2.97036 52.0355 2.21233C52.8162 1.45602 53.818 0.999999 54.7599 0.999999L60.9545 0.999999L74.5153 1L80.1484 1C82.1577 1 83.7011 2.95678 83.7011 4.80741L83.7011 13.4461L83.7011 13.4689L83.7021 13.4917L83.7041 13.5352L83.7011 25.9849ZM50.8138 25.9222C50.8139 25.9222 50.8134 25.9239 50.8124 25.927C50.8132 25.9236 50.8138 25.9221 50.8138 25.9222Z" fill="#007AF3" stroke="#007AF3" stroke-width="2"/>
</svg>
