<svg width="29" height="28" viewBox="0 0 29 28" fill="none" xmlns="http://www.w3.org/2000/svg">
<g id="ri:linkedin-fill">
<rect width="29" height="28" fill=""/>
<path id="Vector" d="M8.38607 5.83334C8.38575 6.45218 8.13083 7.04555 7.67739 7.48291C7.22395 7.92028 6.60913 8.16582 5.96819 8.16551C5.32725 8.1652 4.71269 7.91907 4.25971 7.48126C3.80672 7.04346 3.55241 6.44985 3.55273 5.83101C3.55306 5.21217 3.80797 4.6188 4.26141 4.18143C4.71485 3.74407 5.32967 3.49853 5.97061 3.49884C6.61155 3.49915 7.22611 3.74528 7.6791 4.18308C8.13208 4.62089 8.38639 5.2145 8.38607 5.83334ZM8.45857 9.89334H3.62523V24.5H8.45857V9.89334ZM16.0952 9.89334H11.2861V24.5H16.0469V16.835C16.0469 12.565 21.8106 12.1683 21.8106 16.835V24.5H26.5836V15.2483C26.5836 8.05001 18.0527 8.31834 16.0469 11.8533L16.0952 9.89334Z" fill="#B36700"/>
</g>
</svg>
