<svg width="143" height="59" viewBox="0 0 143 59" fill="none" xmlns="http://www.w3.org/2000/svg">
<path d="M54.7208 20.478C54.7062 20.281 54.6623 20.0403 54.5598 19.7996C54.4574 19.5589 54.2964 19.3108 54.1061 19.1285C53.9159 18.9388 53.7183 18.8148 53.5427 18.7273C53.367 18.6397 53.2207 18.5887 53.0743 18.5522C52.8109 18.4865 52.6133 18.4719 52.4377 18.4647C52.4304 18.4647 52.4231 18.4647 52.4084 18.4647C52.2255 17.5966 51.9987 16.7358 51.7206 15.8896C51.4059 14.9486 51.0401 14.0222 50.6083 13.1249C50.4693 12.8331 50.3229 12.5486 50.1693 12.2642C50.2351 12.1766 50.301 12.0818 50.3668 11.9724C50.4327 11.8629 50.5059 11.7316 50.579 11.5712C50.6522 11.4034 50.7327 11.1991 50.7766 10.8563C50.7986 10.6812 50.8059 10.4624 50.7474 10.1925C50.7181 10.0539 50.6742 9.90797 50.6083 9.76207C50.5425 9.61618 50.4547 9.46299 50.3522 9.33168C50.2498 9.20038 50.1327 9.07637 50.0083 8.98154C49.8912 8.88671 49.7741 8.81376 49.6643 8.7554C49.5546 8.69705 49.4521 8.65328 49.357 8.6241C49.2619 8.59492 49.1814 8.56574 49.1009 8.55115C48.7936 8.4855 48.5887 8.4855 48.413 8.4855C48.2374 8.49279 48.0984 8.50738 47.974 8.52197C47.8642 8.53656 47.7618 8.55845 47.674 8.57304C47.5496 8.42714 47.4252 8.28125 47.3008 8.14265C45.969 6.63994 44.4103 5.33419 42.7053 4.28375C41.0003 3.22602 39.1563 2.4309 37.2684 1.88379C35.3878 1.31481 33.4486 1.00843 31.5241 0.899009C29.885 0.804178 28.2458 0.855241 26.636 1.02302C26.6067 0.979251 26.5701 0.935483 26.5408 0.891715C26.3798 0.694758 26.1676 0.497801 25.9262 0.351907C25.6847 0.206013 25.4286 0.111182 25.1944 0.0601188C24.9602 0.00905591 24.748 -0.0055335 24.5578 0.00176121C24.3748 0.00905591 24.2138 0.03094 24.0675 0.0601188C23.7821 0.118476 23.5626 0.206013 23.3723 0.286255C23.1821 0.373791 23.0138 0.461327 22.8674 0.556158C22.5674 0.738526 22.3186 0.928188 22.0844 1.11785C21.7332 1.40964 21.4258 1.70143 21.1405 2.00051C20.8404 2.07346 20.5404 2.1537 20.2477 2.23394C18.4403 2.73727 16.6767 3.34273 14.9571 4.05032C13.2375 4.75061 11.5618 5.54573 9.94458 6.43569C11.7227 5.93965 13.4936 5.46549 15.2791 5.05699C16.1718 4.86003 17.0573 4.66308 17.95 4.50259C18.4183 4.41506 18.8867 4.33481 19.355 4.25457C18.9525 4.84544 18.5793 5.4509 18.2281 6.06366C17.7378 6.93902 17.2914 7.82898 16.8963 8.74081C15.3157 12.3809 14.4522 16.2908 14.3498 20.2008C14.3205 21.492 14.3717 22.7831 14.5107 24.067C14.1449 24.0889 13.779 24.1108 13.4058 24.1253C8.92744 24.3223 4.39786 23.9065 0 22.8269C4.31005 24.2056 8.84694 24.9569 13.4131 25.0737C13.8229 25.0809 14.2254 25.0882 14.6351 25.0882C14.679 25.3946 14.7303 25.7083 14.7815 26.0147C15.1181 27.9259 15.645 29.7933 16.3401 31.5805C16.706 32.5215 17.1158 33.4334 17.5622 34.3306C13.5082 34.6078 9.40308 34.44 5.35646 33.7981C9.48357 34.761 13.7497 35.2279 18.0232 35.206C18.3012 35.7166 18.5866 36.2272 18.894 36.7233C19.8892 38.35 21.0087 39.8892 22.2308 41.3408C21.1405 39.7944 20.1526 38.1749 19.3111 36.4972C19.0989 36.0741 18.894 35.6364 18.6964 35.206C23.1162 35.133 27.5433 34.5422 31.8753 33.4917C34.056 32.9592 36.2147 32.3173 38.3368 31.5586C39.3319 31.2012 40.3198 30.8219 41.3004 30.4134C40.8759 32.4778 40.2393 34.5203 39.4344 36.519C39.0026 37.5841 38.5197 38.6345 38.0001 39.6703C37.2538 39.9694 36.4927 40.2466 35.7317 40.5092C32.49 41.6034 29.102 42.3475 25.6627 42.7852C22.2235 43.2229 18.733 43.3542 15.2425 43.2229C18.711 43.6678 22.2235 43.8575 25.7432 43.7335C29.263 43.6022 32.79 43.1645 36.2586 42.3329C36.3683 42.3037 36.4854 42.2746 36.5952 42.2527C36.4415 42.5153 36.2805 42.7779 36.1195 43.0405C35.7976 43.5657 35.4609 44.0909 35.117 44.6089C34.7731 45.1268 34.4145 45.6374 34.056 46.148C33.3315 47.1693 32.5632 48.1687 31.7729 49.1753C32.8486 48.4823 33.8657 47.7018 34.839 46.8629C35.3292 46.4471 35.7976 46.0022 36.2659 45.5572C36.7269 45.1049 37.1733 44.638 37.6123 44.1639C38.4392 43.252 39.2222 42.2891 39.9466 41.2898C40.4296 41.1293 40.9125 40.9615 41.3882 40.7864C42.5956 40.3415 43.7883 39.8381 44.9592 39.2691C44.0079 40.7208 42.9029 42.0776 41.6516 43.3177C41.0296 43.945 40.3637 44.5286 39.6685 45.0903C38.9734 45.652 38.2489 46.1699 37.4952 46.666C35.9805 47.6435 34.356 48.4751 32.651 49.1826C36.2952 48.5845 39.8515 47.038 42.8883 44.7256C44.403 43.5657 45.786 42.2235 47.0008 40.7281C48.1203 39.3494 49.1009 37.854 49.9205 36.2637C50.2644 35.9938 50.6083 35.7166 50.9449 35.4175C51.3035 35.0966 51.662 34.7537 52.006 34.3744C52.1816 34.1847 52.3499 33.9805 52.5182 33.7616C52.6865 33.5428 52.8475 33.3021 53.0085 33.0103C53.089 32.8644 53.1622 32.7112 53.2353 32.5288C53.3085 32.3465 53.3744 32.1422 53.4256 31.8796C53.4475 31.7483 53.4695 31.6024 53.4695 31.4346C53.4695 31.2668 53.4622 31.0699 53.4109 30.8583C53.367 30.6395 53.2792 30.3988 53.1402 30.1654C53.0012 29.9319 52.8109 29.7131 52.606 29.5526C52.5255 29.4869 52.445 29.4286 52.3645 29.3775C52.6938 27.8238 52.8841 26.2335 52.9353 24.636C52.9499 24.2931 52.9499 23.9503 52.9499 23.6074C53.0743 23.4907 53.2061 23.3667 53.3305 23.2354C53.5646 23.002 53.7915 22.7466 54.0403 22.4257C54.1647 22.2579 54.2891 22.0828 54.4135 21.8275C54.4793 21.6962 54.5452 21.5503 54.6037 21.3461L54.6257 21.2658L54.6476 21.1783C54.6623 21.1199 54.6769 21.0543 54.6842 20.9886C54.7208 20.8354 54.7354 20.6822 54.7208 20.478ZM47.2642 14.9194C48.3326 17.21 48.9765 19.712 49.2253 22.2652C49.0058 22.4549 48.7716 22.6445 48.5448 22.8342C47.7252 23.4907 46.869 24.1108 45.9763 24.7089C45.8885 24.7673 45.7934 24.8329 45.6982 24.8913C45.7129 24.0451 45.6909 23.1916 45.6177 22.3454C45.4641 20.4561 45.0689 18.5741 44.4469 16.7723C45.0396 16.4148 45.625 16.0501 46.2031 15.6562C46.5617 15.4228 46.9129 15.1747 47.2642 14.9194ZM36.2586 5.04969C37.0635 5.33419 37.8392 5.66245 38.5929 6.03448C38.9734 6.22414 39.3393 6.4211 39.7051 6.63265C40.071 6.84419 40.4223 7.06303 40.7662 7.29646C42.1492 8.22289 43.4005 9.33168 44.4762 10.5937C44.8421 11.0241 45.1933 11.469 45.5153 11.9286C45.5007 11.9432 45.486 11.9505 45.4714 11.9651C45.0762 12.3152 44.6591 12.6508 44.2347 12.979C43.8762 13.2562 43.5103 13.5334 43.1371 13.8033C43.1005 13.7304 43.0566 13.6574 43.02 13.5845C42.859 13.2854 42.6834 12.9863 42.5078 12.6945C42.1565 12.111 41.7687 11.5493 41.3589 11.0022C40.5393 9.91526 39.6246 8.90859 38.6295 8.00405C36.8513 6.38462 34.839 5.09346 32.7169 4.10868C33.9389 4.33481 35.1243 4.64119 36.2586 5.04969ZM16.2523 20.3175C16.6475 16.6774 17.7671 13.1468 19.4721 9.96632C19.8965 9.1712 20.3648 8.40526 20.8624 7.66849C21.36 6.93173 21.9015 6.23144 22.4723 5.58221C22.7576 5.26124 23.0503 4.95486 23.3577 4.67037C23.6577 4.38588 23.965 4.13056 24.2577 3.93361C24.4041 3.83148 24.5431 3.75124 24.6529 3.70017C24.6602 3.70017 24.6748 3.68559 24.6822 3.68559C24.7188 3.6637 24.748 3.65641 24.7553 3.65641C24.77 3.64911 24.7919 3.64182 24.8066 3.64182C25.1871 3.61993 25.5969 3.60534 25.9774 3.59805C26.6872 3.58346 27.397 3.58346 28.0995 3.60534C29.1239 4.15974 30.1191 4.75061 31.0704 5.39255C32.0875 6.07095 33.0608 6.80042 33.9755 7.58825C34.8902 8.36878 35.739 9.20767 36.5147 10.0903C38.0294 11.8119 39.2514 13.7377 40.1369 15.7948C39.6905 16.072 39.2368 16.3346 38.7758 16.5972C34.9414 18.7856 30.8362 20.5509 26.5774 21.8421C23.1674 22.8706 19.655 23.5928 16.0913 23.9357C16.0694 22.7248 16.1206 21.5138 16.2523 20.3175ZM41.7906 27.2329C40.3784 27.9988 38.9368 28.7064 37.466 29.3556C35.4829 30.231 33.4486 31.0042 31.3704 31.6681C27.2214 32.9957 22.9186 33.8857 18.5427 34.2577C18.4622 34.265 18.3891 34.2723 18.3086 34.2796C17.9061 33.2948 17.5475 32.2954 17.2548 31.2814C16.728 29.4942 16.3767 27.6633 16.2084 25.825C16.1865 25.577 16.1645 25.3217 16.1499 25.0737C19.816 24.9788 23.4821 24.4901 27.075 23.6731C29.3142 23.1624 31.5314 22.5205 33.7121 21.7619C35.8927 21.0032 38.0294 20.1205 40.1149 19.1139C40.4515 18.9534 40.7881 18.7856 41.1247 18.6105C41.4833 19.9309 41.7175 21.2877 41.8272 22.6591C41.9516 24.1691 41.9297 25.701 41.7906 27.2329ZM47.6374 33.9805C47.3886 34.2066 47.1252 34.4255 46.8617 34.6443C46.2251 35.1622 45.5592 35.651 44.864 36.1105C44.0006 36.6868 43.1078 37.2193 42.1858 37.7154C43.4225 35.4248 44.3884 32.9592 44.9884 30.3769C45.1275 29.7714 45.2519 29.1587 45.3543 28.5386C46.108 28.152 46.8617 27.7508 47.6008 27.3277C48.1642 27.0067 48.7277 26.6712 49.2765 26.321C49.1155 28.918 48.5594 31.5076 47.6374 33.9805Z" fill="#9EA0A3"/>
<path d="M119.921 53.1291L119.035 54.0044C118.472 53.4136 117.82 53.1145 117.074 53.1145C116.423 53.1145 115.874 53.3333 115.435 53.7637C114.996 54.1941 114.776 54.7193 114.776 55.3321C114.776 55.9667 115.003 56.5065 115.464 56.9515C115.918 57.3965 116.481 57.6153 117.155 57.6153C117.594 57.6153 117.959 57.5205 118.259 57.3381C118.56 57.1558 118.801 56.8713 118.984 56.4773H117.067V55.2956H120.396L120.404 55.5728C120.404 56.1491 120.25 56.6962 119.95 57.2141C119.65 57.732 119.262 58.1259 118.786 58.3959C118.311 58.6658 117.747 58.8044 117.111 58.8044C116.423 58.8044 115.808 58.6585 115.274 58.3594C114.732 58.0603 114.308 57.6372 113.993 57.0901C113.679 56.543 113.525 55.9448 113.525 55.3102C113.525 54.4348 113.818 53.6762 114.396 53.027C115.084 52.261 115.976 51.8744 117.081 51.8744C117.659 51.8744 118.194 51.9838 118.699 52.1954C119.101 52.385 119.518 52.6914 119.921 53.1291Z" fill="#9EA0A3"/>
<path d="M121.238 52.0494H122.57C123.301 52.0494 123.821 52.1151 124.136 52.2464C124.443 52.3777 124.699 52.5892 124.882 52.8956C125.072 53.1947 125.167 53.5521 125.167 53.9679C125.167 54.3983 125.065 54.7631 124.853 55.0549C124.648 55.3466 124.333 55.5655 123.909 55.7187L125.475 58.6511H124.099L122.606 55.8573H122.489V58.6511H121.231V52.0494H121.238ZM122.504 54.6318H122.899C123.301 54.6318 123.579 54.5807 123.726 54.4713C123.879 54.3692 123.953 54.1941 123.953 53.9461C123.953 53.8002 123.916 53.6762 123.843 53.5667C123.77 53.4573 123.667 53.3844 123.543 53.3406C123.418 53.2968 123.184 53.2677 122.855 53.2677H122.511V54.6318H122.504Z" fill="#9EA0A3"/>
<path d="M129.236 51.8889C130.173 51.8889 130.978 52.2245 131.651 52.9029C132.324 53.5813 132.661 54.4056 132.661 55.3758C132.661 56.3387 132.331 57.1557 131.665 57.8195C130.999 58.4833 130.195 58.8189 129.243 58.8189C128.248 58.8189 127.421 58.476 126.763 57.7903C126.104 57.1046 125.775 56.2949 125.775 55.3466C125.775 54.712 125.928 54.1357 126.236 53.6032C126.543 53.0707 126.96 52.6549 127.502 52.3412C128.036 52.0421 128.614 51.8889 129.236 51.8889ZM129.221 53.1144C128.607 53.1144 128.094 53.326 127.677 53.7491C127.26 54.1722 127.048 54.712 127.048 55.3685C127.048 56.098 127.311 56.6742 127.838 57.0973C128.248 57.4329 128.716 57.5934 129.243 57.5934C129.843 57.5934 130.348 57.3745 130.773 56.9441C131.197 56.5138 131.402 55.9812 131.402 55.3539C131.402 54.7266 131.19 54.194 130.765 53.7564C130.341 53.3333 129.829 53.1144 129.221 53.1144Z" fill="#9EA0A3"/>
<path d="M133.407 52.0494H134.673V56.3168C134.673 56.6816 134.702 56.9442 134.768 57.0974C134.834 57.2506 134.936 57.3746 135.09 57.4621C135.236 57.5496 135.419 57.6007 135.631 57.6007C135.851 57.6007 136.041 57.5496 136.202 57.4475C136.363 57.3454 136.473 57.2141 136.539 57.0609C136.597 56.9004 136.634 56.6013 136.634 56.1637V52.0494H137.9V55.9886C137.9 56.6524 137.863 57.112 137.79 57.3673C137.717 57.6226 137.571 57.8706 137.358 58.1113C137.146 58.3521 136.905 58.5271 136.627 58.6438C136.349 58.7606 136.027 58.8189 135.661 58.8189C135.178 58.8189 134.761 58.7095 134.409 58.4907C134.051 58.2718 133.802 57.9946 133.648 57.6664C133.495 57.3381 133.421 56.7764 133.421 55.9886V52.0494H133.407Z" fill="#9EA0A3"/>
<path d="M138.954 52.0494H140.293C141.017 52.0494 141.537 52.1151 141.859 52.2464C142.181 52.3777 142.429 52.5965 142.612 52.8956C142.795 53.1947 142.89 53.5521 142.89 53.9679C142.89 54.4275 142.766 54.8141 142.525 55.1205C142.283 55.4269 141.954 55.6384 141.544 55.7551C141.302 55.8208 140.856 55.8573 140.212 55.8573V58.6511H138.954V52.0494ZM140.212 54.6318H140.615C140.929 54.6318 141.149 54.6099 141.273 54.5661C141.398 54.5223 141.493 54.4494 141.566 54.34C141.639 54.2379 141.668 54.1138 141.668 53.9607C141.668 53.7053 141.566 53.523 141.368 53.399C141.222 53.3114 140.959 53.2677 140.563 53.2677H140.205V54.6318H140.212Z" fill="#9EA0A3"/>
<path d="M73.1757 12.1912H58.1674V49.2337H73.1757V12.1912Z" fill="#00355F"/>
<path d="M73.1756 0.140381H58.1673V9.71832H73.1756V0.140381Z" fill="#00355F"/>
<path d="M143 49.2265V36.8328C136.912 36.8328 134.885 34.907 134.885 29.8809V18.6252H141.493V8.01869H134.885V0.147705H120.769V8.01869H117.784V18.6252H120.762L120.769 39.4005C120.769 46.0897 124.67 49.2265 130.363 49.2265H143Z" fill="#00355F"/>
<path d="M89.8817 20.3759C111.981 16.4076 104.546 46.1918 89.8817 36.0887V20.3759ZM89.8817 0.140381H75.7661V49.2264H89.8817V44.7767C118.384 65.8073 136.809 5.01324 89.8817 11.8119V0.140381Z" fill="#00355F"/>
</svg>
