<svg width="190" height="131" viewBox="0 0 190 131" fill="none" xmlns="http://www.w3.org/2000/svg">
<path d="M138.083 118.328L136.111 120.277C134.857 118.961 133.406 118.295 131.744 118.295C130.293 118.295 129.071 118.783 128.093 119.741C127.115 120.7 126.626 121.869 126.626 123.234C126.626 124.648 127.132 125.85 128.158 126.841C129.169 127.832 130.424 128.319 131.923 128.319C132.901 128.319 133.716 128.108 134.384 127.702C135.052 127.296 135.59 126.662 135.997 125.785H131.727V123.153H139.143L139.159 123.77C139.159 125.054 138.817 126.272 138.149 127.426C137.48 128.579 136.617 129.457 135.557 130.058C134.498 130.659 133.243 130.968 131.825 130.968C130.293 130.968 128.924 130.643 127.735 129.976C126.529 129.31 125.583 128.368 124.883 127.15C124.182 125.931 123.839 124.599 123.839 123.185C123.839 121.236 124.491 119.546 125.779 118.1C127.311 116.394 129.299 115.533 131.76 115.533C133.048 115.533 134.237 115.777 135.362 116.248C136.258 116.671 137.187 117.353 138.083 118.328Z" fill="#9EA0A3"/>
<path d="M141.017 115.923H143.983C145.613 115.923 146.77 116.069 147.471 116.362C148.155 116.654 148.726 117.125 149.133 117.808C149.557 118.474 149.769 119.27 149.769 120.196C149.769 121.155 149.541 121.967 149.068 122.617C148.612 123.267 147.911 123.754 146.966 124.095L150.453 130.626H147.389L144.065 124.404H143.804V130.626H141.001V115.923H141.017ZM143.837 121.674H144.717C145.613 121.674 146.232 121.561 146.558 121.317C146.9 121.09 147.063 120.7 147.063 120.147C147.063 119.822 146.982 119.546 146.819 119.302C146.656 119.059 146.428 118.896 146.151 118.799C145.874 118.701 145.352 118.636 144.619 118.636H143.853V121.674H143.837Z" fill="#9EA0A3"/>
<path d="M158.83 115.566C160.916 115.566 162.709 116.313 164.208 117.824C165.708 119.335 166.457 121.171 166.457 123.332C166.457 125.476 165.724 127.296 164.241 128.774C162.758 130.253 160.965 131 158.847 131C156.63 131 154.788 130.236 153.322 128.709C151.855 127.182 151.122 125.379 151.122 123.267C151.122 121.853 151.464 120.57 152.148 119.384C152.833 118.198 153.762 117.272 154.968 116.573C156.157 115.907 157.445 115.566 158.83 115.566ZM158.798 118.295C157.429 118.295 156.288 118.766 155.359 119.709C154.43 120.651 153.957 121.853 153.957 123.315C153.957 124.94 154.544 126.224 155.717 127.166C156.63 127.913 157.673 128.271 158.847 128.271C160.183 128.271 161.307 127.783 162.253 126.825C163.198 125.866 163.654 124.68 163.654 123.283C163.654 121.886 163.182 120.7 162.236 119.725C161.291 118.783 160.15 118.295 158.798 118.295Z" fill="#9EA0A3"/>
<path d="M168.12 115.923H170.939V125.427C170.939 126.24 171.004 126.825 171.151 127.166C171.298 127.507 171.526 127.783 171.868 127.978C172.194 128.173 172.602 128.287 173.074 128.287C173.563 128.287 173.987 128.173 174.345 127.946C174.704 127.718 174.948 127.426 175.095 127.085C175.226 126.727 175.307 126.061 175.307 125.086V115.923H178.126V124.696C178.126 126.175 178.045 127.198 177.882 127.767C177.719 128.336 177.393 128.888 176.92 129.424C176.448 129.96 175.91 130.35 175.291 130.61C174.671 130.87 173.954 131 173.139 131C172.064 131 171.135 130.756 170.353 130.269C169.554 129.781 169 129.164 168.658 128.433C168.315 127.702 168.152 126.451 168.152 124.696V115.923H168.12Z" fill="#9EA0A3"/>
<path d="M180.473 115.923H183.456C185.069 115.923 186.226 116.069 186.943 116.362C187.661 116.654 188.215 117.142 188.622 117.808C189.03 118.474 189.241 119.27 189.241 120.196C189.241 121.22 188.964 122.081 188.426 122.763C187.889 123.445 187.155 123.916 186.243 124.176C185.705 124.323 184.711 124.404 183.276 124.404V130.626H180.473V115.923ZM183.276 121.674H184.173C184.874 121.674 185.363 121.626 185.64 121.528C185.917 121.431 186.129 121.268 186.292 121.025C186.455 120.797 186.52 120.521 186.52 120.18C186.52 119.611 186.292 119.205 185.852 118.929C185.526 118.734 184.939 118.636 184.059 118.636H183.26V121.674H183.276Z" fill="#9EA0A3"/>
<path d="M33.9751 27.152H0.54895V109.652H33.9751V27.152Z" fill="#00355F"/>
<path d="M33.9751 0.312622H0.54895V21.6444H33.9751V0.312622Z" fill="#00355F"/>
<path d="M189.486 109.636V82.0328C175.926 82.0328 171.412 77.7438 171.412 66.5499V41.4814H186.129V17.8589H171.412V0.328857H139.974V17.8589H133.325V41.4814H139.958L139.974 87.7516C139.974 102.65 148.661 109.636 161.34 109.636H189.486Z" fill="#00355F"/>
<path d="M71.1823 45.3806C120.401 36.5425 103.843 102.877 71.1823 80.3757V45.3806ZM71.1823 0.312622H39.7444V109.636H71.1823V99.7254C134.661 146.564 175.698 11.1653 71.1823 26.3071V0.312622Z" fill="#00355F"/>
</svg>
