<svg width="122" height="110" viewBox="0 0 122 110" fill="none" xmlns="http://www.w3.org/2000/svg">
<path d="M121.873 45.608C121.84 45.1694 121.742 44.6332 121.514 44.0971C121.286 43.561 120.927 43.0086 120.504 42.6024C120.08 42.18 119.64 41.9038 119.249 41.7089C118.858 41.5139 118.532 41.4002 118.206 41.3189C117.619 41.1727 117.179 41.1402 116.788 41.124C116.772 41.124 116.755 41.124 116.723 41.124C116.315 39.1906 115.81 37.2736 115.191 35.389C114.49 33.2931 113.675 31.2298 112.714 29.2315C112.404 28.5816 112.078 27.948 111.736 27.3144C111.882 27.1194 112.029 26.9082 112.176 26.6645C112.322 26.4208 112.485 26.1284 112.648 25.771C112.811 25.3973 112.991 24.9424 113.088 24.1788C113.137 23.7889 113.154 23.3015 113.023 22.7004C112.958 22.3917 112.86 22.0668 112.714 21.7418C112.567 21.4169 112.371 21.0757 112.143 20.7833C111.915 20.4908 111.654 20.2147 111.377 20.0034C111.116 19.7922 110.856 19.6298 110.611 19.4998C110.367 19.3698 110.139 19.2724 109.927 19.2074C109.715 19.1424 109.536 19.0774 109.356 19.0449C108.672 18.8987 108.215 18.8987 107.824 18.8987C107.433 18.9149 107.123 18.9474 106.846 18.9799C106.602 19.0124 106.374 19.0611 106.178 19.0936C105.901 18.7687 105.624 18.4438 105.347 18.1351C102.381 14.7883 98.9095 11.8802 95.1122 9.54066C91.3149 7.18491 87.2079 5.41403 83.0032 4.19554C78.8147 2.9283 74.4959 2.24595 70.2096 2.00225C66.559 1.79104 62.9084 1.90477 59.3229 2.27844C59.2577 2.18096 59.1762 2.08348 59.111 1.986C58.7525 1.54735 58.2799 1.10869 57.7421 0.783758C57.2042 0.458826 56.6338 0.247621 56.1123 0.133895C55.5908 0.0201691 55.1182 -0.0123241 54.6944 0.00392251C54.287 0.0201691 53.9284 0.0689088 53.6025 0.133895C52.9669 0.263868 52.478 0.458826 52.0542 0.637539C51.6305 0.832498 51.2556 1.02746 50.9297 1.23866C50.2615 1.64483 49.7074 2.06724 49.1859 2.48965C48.4036 3.13951 47.7191 3.78937 47.0835 4.45548C46.4153 4.61795 45.7471 4.79666 45.0952 4.97537C41.0697 6.09639 37.142 7.44485 33.3121 9.02077C29.4822 10.5804 25.7501 12.3513 22.1483 14.3334C26.1086 13.2286 30.0526 12.1726 34.0292 11.2628C36.0175 10.8241 37.9895 10.3855 39.9778 10.0281C41.0208 9.8331 42.0639 9.65438 43.1069 9.47567C42.2105 10.7916 41.3794 12.1401 40.5971 13.5048C39.5051 15.4544 38.511 17.4365 37.6309 19.4673C34.1107 27.5744 32.1876 36.2825 31.9594 44.9907C31.8942 47.8663 32.0083 50.742 32.3179 53.6013C31.5031 53.6501 30.6882 53.6988 29.857 53.7313C19.883 54.17 9.7948 53.2439 0 50.8394C9.59923 53.91 19.7037 55.5834 29.8733 55.8434C30.786 55.8596 31.6823 55.8759 32.595 55.8759C32.6928 56.5582 32.8069 57.2568 32.921 57.9392C33.6706 62.1958 34.8441 66.3549 36.3923 70.3353C37.2072 72.4311 38.1199 74.4619 39.114 76.4603C30.0852 77.0776 20.9423 76.704 11.9298 75.2743C21.1216 77.4188 30.623 78.4586 40.1408 78.4099C40.7601 79.5471 41.3957 80.6844 42.0802 81.7891C44.2966 85.4121 46.7901 88.8402 49.5118 92.0732C47.0835 88.629 44.8833 85.0222 43.0091 81.2855C42.5365 80.3432 42.0802 79.3684 41.6401 78.4099C51.4838 78.2474 61.3438 76.9314 70.9919 74.5919C75.8486 73.4059 80.6563 71.9762 85.3826 70.2866C87.5991 69.4905 89.7992 68.6457 91.9831 67.7359C91.0378 72.3336 89.62 76.8827 87.8272 81.3342C86.8657 83.7062 85.7901 86.0458 84.6329 88.3528C82.9706 89.0189 81.2757 89.6362 79.5807 90.2211C72.3609 92.6581 64.8152 94.3153 57.1553 95.2901C49.4955 96.2648 41.7216 96.5573 33.9477 96.2648C41.6727 97.2559 49.4955 97.6783 57.3346 97.4021C65.1737 97.1097 73.0291 96.1349 80.7541 94.2828C80.9986 94.2178 81.2594 94.1528 81.5038 94.1041C81.1616 94.6889 80.803 95.2738 80.4445 95.8587C79.7274 97.0284 78.9777 98.1982 78.2117 99.3517C77.4457 100.505 76.6472 101.642 75.8486 102.78C74.2351 105.054 72.5239 107.28 70.7638 109.522C73.1595 107.979 75.4249 106.24 77.5924 104.372C78.6843 103.446 79.7274 102.455 80.7704 101.464C81.7972 100.456 82.7913 99.4167 83.7692 98.3607C85.6108 96.3298 87.3546 94.1853 88.9681 91.9595C90.0437 91.6021 91.1193 91.2284 92.1787 90.8385C94.8678 89.8475 97.5243 88.7264 100.132 87.4592C98.0132 90.6923 95.5523 93.7141 92.7654 96.4761C91.3801 97.8733 89.897 99.173 88.3488 100.424C86.8005 101.675 85.187 102.828 83.5084 103.933C80.1348 106.11 76.5168 107.962 72.7195 109.538C80.8356 108.206 88.7562 104.762 95.5197 99.6116C98.8932 97.0284 101.973 94.0391 104.679 90.7085C107.172 87.6379 109.356 84.3074 111.182 80.7656C111.948 80.1645 112.714 79.5471 113.463 78.881C114.262 78.1662 115.06 77.4026 115.826 76.5578C116.217 76.1353 116.592 75.6804 116.967 75.193C117.342 74.7056 117.701 74.1695 118.059 73.5196C118.238 73.1947 118.401 72.8535 118.564 72.4474C118.727 72.0412 118.874 71.5863 118.988 71.0014C119.037 70.709 119.086 70.3841 119.086 70.0104C119.086 69.6367 119.07 69.1981 118.955 68.7269C118.858 68.2395 118.662 67.7034 118.352 67.1835C118.043 66.6636 117.619 66.1762 117.163 65.8188C116.983 65.6726 116.804 65.5426 116.625 65.4289C117.358 61.9683 117.782 58.4266 117.896 54.8686C117.929 54.105 117.929 53.3414 117.929 52.5778C118.206 52.3179 118.499 52.0417 118.776 51.7492C119.298 51.2294 119.803 50.6607 120.357 49.9459C120.634 49.5722 120.911 49.1823 121.188 48.6137C121.335 48.3212 121.482 47.9963 121.612 47.5414L121.661 47.3627L121.71 47.1677C121.742 47.0377 121.775 46.8915 121.791 46.7453C121.873 46.4041 121.905 46.0629 121.873 45.608ZM105.266 33.2282C107.645 38.3296 109.079 43.9022 109.633 49.5885C109.144 50.0109 108.623 50.4333 108.118 50.8557C106.292 52.3179 104.386 53.6988 102.397 55.0311C102.202 55.161 101.99 55.3072 101.778 55.4372C101.811 53.5526 101.762 51.6518 101.599 49.7672C101.256 45.5593 100.376 41.3677 98.991 37.3548C100.311 36.5587 101.615 35.7464 102.902 34.8691C103.701 34.3492 104.483 33.7968 105.266 33.2282ZM80.7541 11.2465C82.5469 11.8802 84.2744 12.6113 85.953 13.4398C86.8005 13.8622 87.6154 14.3009 88.4302 14.7721C89.2451 15.2432 90.0274 15.7306 90.7934 16.2505C93.8736 18.3138 96.6605 20.7833 99.0562 23.5939C99.8711 24.5525 100.653 25.5435 101.37 26.5671C101.338 26.5996 101.305 26.6158 101.273 26.6483C100.393 27.4281 99.4637 28.1755 98.5184 28.9066C97.7198 29.5239 96.905 30.1413 96.0738 30.7424C95.9923 30.58 95.8945 30.4175 95.813 30.255C95.4545 29.5889 95.0633 28.9228 94.6722 28.273C93.8899 26.9732 93.0261 25.7222 92.1135 24.5037C90.2882 22.083 88.251 19.841 86.0345 17.8264C82.0742 14.2197 77.5924 11.344 72.8661 9.15074C75.5878 9.65438 78.228 10.3367 80.7541 11.2465ZM36.1968 45.2506C37.0768 37.1436 39.5703 29.2802 43.3677 22.1967C44.3129 20.4259 45.356 18.72 46.4642 17.0791C47.5724 15.4382 48.7784 13.8785 50.0496 12.4325C50.6852 11.7177 51.3371 11.0353 52.0216 10.4017C52.6898 9.76811 53.3743 9.19948 54.0262 8.76082C54.3522 8.53337 54.6618 8.35466 54.9063 8.24093C54.9226 8.24093 54.9552 8.20844 54.9715 8.20844C55.053 8.1597 55.1182 8.14345 55.1345 8.14345C55.167 8.12721 55.2159 8.11096 55.2485 8.11096C56.096 8.06222 57.0087 8.02973 57.8561 8.01348C59.437 7.98099 61.0178 7.98099 62.5824 8.02973C64.8641 9.26447 67.0805 10.5804 69.1992 12.0101C71.4645 13.5211 73.6321 15.1457 75.6693 16.9004C77.7065 18.6387 79.597 20.5071 81.3245 22.4729C84.6981 26.3071 87.4198 30.5962 89.3918 35.1777C88.3977 35.7951 87.3872 36.38 86.3605 36.9649C77.8206 41.8388 68.6777 45.7705 59.1925 48.6461C51.5979 50.9369 43.7751 52.5453 35.8382 53.3089C35.7893 50.612 35.9034 47.9151 36.1968 45.2506ZM93.075 60.6524C89.9296 62.3582 86.719 63.9342 83.4432 65.3801C79.0266 67.3297 74.4959 69.0518 69.8674 70.5303C60.6267 73.4872 51.0438 75.4692 41.2979 76.2978C41.1186 76.3141 40.9556 76.3303 40.7764 76.3465C39.88 74.1533 39.0814 71.9275 38.4295 69.6692C37.2561 65.6888 36.4738 61.6109 36.099 57.5168C36.0501 56.9644 36.0012 56.3958 35.9686 55.8434C44.1336 55.6322 52.2987 54.5437 60.3008 52.724C65.2878 51.5868 70.2259 50.1571 75.0826 48.4674C79.9393 46.7778 84.6981 44.812 89.3429 42.5699C90.0926 42.2125 90.8423 41.8388 91.592 41.4489C92.3905 44.3895 92.9121 47.4114 93.1565 50.4658C93.4336 53.8288 93.3847 57.2406 93.075 60.6524ZM106.097 75.6804C105.543 76.1841 104.956 76.6715 104.369 77.1589C102.951 78.3124 101.468 79.4009 99.92 80.4244C97.9969 81.7079 96.0086 82.8939 93.9551 83.9987C96.7094 78.8973 98.8607 73.4059 100.197 67.6546C100.507 66.3062 100.784 64.9415 101.012 63.5605C102.691 62.6994 104.369 61.8059 106.015 60.8636C107.27 60.1487 108.525 59.4014 109.747 58.6215C109.389 64.4053 108.15 70.1729 106.097 75.6804Z" fill="#9EA0A3"/>
</svg>
