<svg width="32" height="32" viewBox="0 0 32 32" fill="none" xmlns="http://www.w3.org/2000/svg">
<g id="Group 2">
<path id="Vector" d="M13.2451 1C10.8232 1 8.45576 1.71815 6.44207 3.06364C4.42838 4.40913 2.8589 6.32152 1.9321 8.55899C1.00531 10.7964 0.762813 13.2585 1.23529 15.6338C1.70777 18.0091 2.874 20.1909 4.5865 21.9034C6.299 23.6158 8.48086 24.7821 10.8562 25.2545C13.2315 25.727 15.6935 25.4845 17.931 24.5577C20.1685 23.6309 22.0809 22.0615 23.4264 20.0478C24.7719 18.0342 25.4901 15.6667 25.4901 13.2449C25.4899 9.99742 24.1997 6.883 21.9034 4.58668C19.607 2.29036 16.4926 1.00021 13.2451 1Z" stroke="#00355F" stroke-width="2" stroke-miterlimit="10"/>
<path id="Vector_2" d="M22.4285 22.4286L31 31" stroke="#00355F" stroke-width="2" stroke-miterlimit="10" stroke-linecap="round"/>
</g>
</svg>
