<svg width="31" height="31" viewBox="0 0 31 31" fill="none" xmlns="http://www.w3.org/2000/svg">
<g id="ph:link-bold">
<path id="Vector" d="M16.5132 22.7087C16.6487 22.8437 16.7561 23.0041 16.8295 23.1808C16.9028 23.3574 16.9406 23.5468 16.9406 23.738C16.9406 23.9293 16.9028 24.1186 16.8295 24.2953C16.7561 24.4719 16.6487 24.6323 16.5132 24.7673L15.7939 25.4866C14.4309 26.8496 12.5823 27.6153 10.6547 27.6153C8.72709 27.6153 6.87846 26.8496 5.51545 25.4866C4.15245 24.1236 3.38672 22.275 3.38672 20.3474C3.38672 18.4198 4.15245 16.5712 5.51545 15.2082L8.43623 12.2886C9.74584 10.9758 11.5079 10.2133 13.3614 10.1575C15.2149 10.1017 17.0196 10.7566 18.4059 11.9883C18.549 12.1155 18.6657 12.2697 18.7492 12.442C18.8327 12.6143 18.8815 12.8013 18.8928 12.9925C18.904 13.1837 18.8775 13.3752 18.8147 13.5561C18.752 13.737 18.6542 13.9038 18.527 14.0469C18.3998 14.19 18.2456 14.3067 18.0733 14.3902C17.901 14.4737 17.7139 14.5225 17.5228 14.5338C17.3316 14.545 17.1401 14.5185 16.9592 14.4557C16.7783 14.393 16.6115 14.2952 16.4684 14.168C15.6371 13.4297 14.5551 13.0369 13.4438 13.07C12.3325 13.1031 11.2759 13.5596 10.49 14.346L7.57162 17.2619C6.75395 18.0796 6.29459 19.1886 6.29459 20.345C6.29459 21.5013 6.75395 22.6103 7.57162 23.428C8.3893 24.2457 9.4983 24.7051 10.6547 24.7051C11.811 24.7051 12.92 24.2457 13.7377 23.428L14.457 22.7087C14.592 22.5736 14.7522 22.4664 14.9286 22.3933C15.105 22.3202 15.2941 22.2825 15.4851 22.2825C15.6761 22.2825 15.8652 22.3202 16.0416 22.3933C16.218 22.4664 16.3782 22.5736 16.5132 22.7087ZM25.4838 5.51341C24.1197 4.1525 22.2715 3.38821 20.3446 3.38821C18.4177 3.38821 16.5695 4.1525 15.2054 5.51341L14.4861 6.2327C14.2131 6.50569 14.0597 6.87594 14.0597 7.262C14.0597 7.64806 14.2131 8.01831 14.4861 8.2913C14.7591 8.56428 15.1293 8.71764 15.5154 8.71764C15.9014 8.71764 16.2717 8.56428 16.5447 8.2913L17.264 7.572C18.0816 6.75432 19.1906 6.29496 20.347 6.29496C21.5034 6.29496 22.6124 6.75432 23.4301 7.572C24.2477 8.38967 24.7071 9.49868 24.7071 10.655C24.7071 11.8114 24.2477 12.9204 23.4301 13.7381L20.5105 16.6589C19.7239 17.445 18.6667 17.9008 17.5551 17.9329C16.4435 17.9651 15.3616 17.5713 14.5309 16.832C14.3878 16.7048 14.221 16.607 14.0401 16.5443C13.8592 16.4815 13.6677 16.455 13.4765 16.4662C13.2853 16.4775 13.0983 16.5263 12.926 16.6098C12.7537 16.6933 12.5995 16.81 12.4723 16.9531C12.3451 17.0963 12.2473 17.263 12.1845 17.4439C12.1218 17.6248 12.0952 17.8164 12.1065 18.0075C12.1177 18.1987 12.1665 18.3857 12.2501 18.558C12.3336 18.7303 12.4503 18.8845 12.5934 19.0117C13.9787 20.2431 15.7822 20.8985 17.6348 20.8438C19.4875 20.7891 21.2492 20.0284 22.5594 18.7175L25.4802 15.7979C26.8427 14.4341 27.6083 12.5854 27.609 10.6576C27.6097 8.72984 26.8453 6.88057 25.4838 5.51583V5.51341Z" fill="#007AF3"/>
</g>
</svg>
