<svg width="32" height="32" viewBox="0 0 32 32" fill="none" xmlns="http://www.w3.org/2000/svg">
<path d="M9.25326 6.66667C9.2529 7.37392 8.97161 8.05205 8.47126 8.5519C7.97092 9.05175 7.2925 9.33236 6.58526 9.33201C5.87801 9.33165 5.19987 9.05036 4.70003 8.55001C4.20018 8.04967 3.91957 7.37125 3.91992 6.66401C3.92028 5.95676 4.20157 5.27863 4.70191 4.77878C5.20226 4.27893 5.88068 3.99832 6.58792 3.99867C7.29517 3.99903 7.9733 4.28032 8.47315 4.78066C8.973 5.28101 9.25361 5.95943 9.25326 6.66667ZM9.33326 11.3067H3.99992V28H9.33326V11.3067ZM17.7599 11.3067H12.4533V28H17.7066V19.24C17.7066 14.36 24.0666 13.9067 24.0666 19.24V28H29.3333V17.4267C29.3333 9.20001 19.9199 9.50667 17.7066 13.5467L17.7599 11.3067Z" fill="#007AF3"/>
</svg>
