<svg width="24" height="21" viewBox="0 0 24 21" fill="none" xmlns="http://www.w3.org/2000/svg">
<path d="M21.2632 5.21802C21.2632 5.21802 23 6.95486 23 9.8496C23 12.7443 21.2632 14.4812 21.2632 14.4812" stroke="white" stroke-width="1.5" stroke-linecap="round" stroke-linejoin="round"/>
<path d="M1 12.5788V8.27834C1 7.66415 1.24398 7.07512 1.67828 6.64083C2.11257 6.20653 2.7016 5.96255 3.31579 5.96255H6.67368C6.90008 5.96249 7.12149 5.89607 7.31053 5.77149L14.2579 1.19086C14.4325 1.07591 14.6349 1.01034 14.8437 1.00113C15.0525 0.991909 15.2599 1.03938 15.4439 1.13851C15.6279 1.23763 15.7816 1.38472 15.8888 1.56416C15.996 1.74359 16.0526 1.9487 16.0526 2.1577V18.6994C16.0526 18.9084 15.996 19.1135 15.8888 19.2929C15.7816 19.4724 15.6279 19.6195 15.4439 19.7186C15.2599 19.8177 15.0525 19.8652 14.8437 19.856C14.6349 19.8467 14.4325 19.7812 14.2579 19.6662L7.31053 15.0856C7.12149 14.961 6.90008 14.8946 6.67368 14.8945H3.31579C2.7016 14.8945 2.11257 14.6506 1.67828 14.2163C1.24398 13.782 1 13.1929 1 12.5788Z" stroke="white" stroke-width="1.5"/>
</svg>
