<svg width="94" height="90" viewBox="0 0 94 90" fill="none" xmlns="http://www.w3.org/2000/svg">
<path d="M73.0284 19.71C77.2284 24.0222 80.2895 29.3117 81.936 35.1018H93.2075V54.9177H81.936C80.2915 60.7125 77.2303 66.0067 73.0284 70.3228L78.6741 80.0953L61.5192 90L55.8867 80.2274C50.0464 81.7004 43.9317 81.7004 38.0914 80.2274L32.4523 90L15.2975 80.0953L20.9431 70.3228C16.7412 66.0067 13.68 60.7125 12.0355 54.9177H0.764038V35.1084H12.0355C13.68 29.3136 16.7412 24.0194 20.9431 19.7034L15.2909 9.93737L32.4391 0.0327148H32.4589L38.098 9.7921C43.9383 8.31909 50.053 8.31909 55.8933 9.7921L61.5126 0.0327148H61.5258L78.6807 9.93737L73.035 19.71H73.0284ZM66.7951 45.0131C66.7951 39.7593 64.708 34.7207 60.9931 31.0058C57.2781 27.2908 52.2395 25.2037 46.9858 25.2037C41.732 25.2037 36.6934 27.2908 32.9785 31.0058C29.2635 34.7207 27.1765 39.7593 27.1765 45.0131C27.1765 50.2668 29.2635 55.3054 32.9785 59.0204C36.6934 62.7353 41.732 64.8224 46.9858 64.8224C52.2395 64.8224 57.2781 62.7353 60.9931 59.0204C64.708 55.3054 66.7951 50.2668 66.7951 45.0131Z" fill="#007AF3"/>
<circle cx="46.9856" cy="46.2544" r="27.8025" fill="#E6F2FE"/>
<path d="M27.1765 66.0458C32.1539 71.6215 39.1982 75.0996 47.0082 75.0996C55.1648 75.0996 62.4861 71.306 67.4902 65.2912C60.6412 62.0419 42.9899 57.6437 27.1765 66.0458Z" fill="#003262"/>
<path d="M46.6383 63.9786V51.4674" stroke="#003262"/>
<path d="M45.9431 52.1625C45.7114 49.1505 47.0552 42.9876 54.2839 42.4316C54.7472 45.2118 53.7278 51.0504 45.9431 52.1625Z" fill="#003262"/>
<path d="M46.7323 54.2477C46.964 51.2357 45.6202 45.0728 38.3915 44.5168C37.9282 47.297 38.9476 53.1356 46.7323 54.2477Z" fill="#003262"/>
</svg>
