<svg width="29" height="28" viewBox="0 0 29 28" fill="none" xmlns="http://www.w3.org/2000/svg">
<g id="mingcute:youtube-fill" clip-path="url(#clip0_177_1350)">
<rect width="29" height="28" fill=""/>
<g id="Group">
<path id="Vector" fill-rule="evenodd" clip-rule="evenodd" d="M14.4993 4.66663C15.5325 4.66663 16.5922 4.69229 17.6193 4.73429L18.8324 4.79029L19.9936 4.85679L21.0811 4.92796L22.0744 5.00263C23.1523 5.08228 24.1666 5.5264 24.9388 6.25684C25.711 6.98728 26.1917 7.95726 26.2963 8.99613L26.3446 9.49196L26.4353 10.5536C26.5198 11.6538 26.5827 12.8531 26.5827 14C26.5827 15.1468 26.5198 16.3461 26.4353 17.4463L26.3446 18.508C26.3289 18.6783 26.3132 18.8428 26.2963 19.0038C26.1917 20.0428 25.7108 21.013 24.9383 21.7434C24.1658 22.4739 23.1513 22.9179 22.0732 22.9973L21.0823 23.0708L19.9948 23.1431L18.8324 23.2096L17.6193 23.2656C16.5799 23.3092 15.5397 23.3318 14.4993 23.3333C13.459 23.3318 12.4188 23.3092 11.3794 23.2656L10.1663 23.2096L9.00506 23.1431L7.91756 23.0708L6.92431 22.9973C5.84641 22.9176 4.83214 22.4735 4.05992 21.7431C3.2877 21.0126 2.807 20.0427 2.70239 19.0038L2.65406 18.508L2.56343 17.4463C2.47104 16.2996 2.42187 15.1501 2.41602 14C2.41602 12.8531 2.47885 11.6538 2.56343 10.5536L2.65406 9.49196C2.66977 9.32163 2.68547 9.15713 2.70239 8.99613C2.80696 7.95744 3.28749 6.98761 4.05946 6.25719C4.83143 5.52678 5.84542 5.08255 6.9231 5.00263L7.91514 4.92796L9.00264 4.85679L10.1651 4.79029L11.3782 4.73429C12.418 4.6907 13.4586 4.66814 14.4993 4.66663ZM12.0827 11.1708V16.8291C12.0827 17.3681 12.6868 17.7041 13.1702 17.4358L18.2452 14.6066C18.3556 14.5452 18.4473 14.4569 18.5111 14.3503C18.5749 14.2438 18.6085 14.123 18.6085 14C18.6085 13.8769 18.5749 13.7561 18.5111 13.6496C18.4473 13.5431 18.3556 13.4547 18.2452 13.3933L13.1702 10.5653C13.0599 10.5038 12.9349 10.4715 12.8076 10.4715C12.6803 10.4715 12.5552 10.5039 12.445 10.5654C12.3348 10.6269 12.2432 10.7153 12.1796 10.8218C12.116 10.9283 12.0826 11.049 12.0827 11.172V11.1708Z" fill="#B36700"/>
</g>
</g>
<defs>
<clipPath id="clip0_177_1350">
<rect width="29" height="28" fill=""/>
</clipPath>
</defs>
</svg>
